<svg version="1.2" xmlns="http://www.w3.org/2000/svg" viewBox="0 0 3000 2000" width="200" height="133">
	<title>business_negotiations_16-ai</title>
	<defs>
		<linearGradient id="g1" x2="1" gradientUnits="userSpaceOnUse" gradientTransform="matrix(-7.902,.01,-0.016,-13.249,2459.395,1317.259)">
			<stop offset="0" stop-color="#ff8762"/>
			<stop offset="1" stop-color="#ff6652"/>
		</linearGradient>
		<linearGradient id="g2" x2="1" gradientUnits="userSpaceOnUse" gradientTransform="matrix(6.864,-7.975,4.437,3.82,2104.329,1289.192)">
			<stop offset="0" stop-color="#ff6b3d"/>
			<stop offset="1" stop-color="#ff8762"/>
		</linearGradient>
		<linearGradient id="g3" x2="1" gradientUnits="userSpaceOnUse" gradientTransform="matrix(4.121,-4.831,3.251,2.774,526.79,1292.588)">
			<stop offset="0" stop-color="#ff8762"/>
			<stop offset="1" stop-color="#ff5c47"/>
		</linearGradient>
	</defs>
	<style>
		.s0 { fill: #9fbee0 } 
		.s1 { fill: #bfd1e3 } 
		.s2 { fill: #363636 } 
		.s3 { fill: #404040 } 
		.s4 { fill: #737373 } 
		.s5 { fill: #e96479 } 
		.s6 { fill: #ffffff } 
		.s7 { fill: #d4d4d4 } 
		.s8 { fill: #bfddff } 
		.s9 { fill: #f5e9cf } 
		.s10 { fill: #7db9b6 } 
		.s11 { fill: #4d455d } 
		.s12 { fill: #2f283d } 
		.s13 { fill: #1e78ce } 
		.s14 { fill: #47716f } 
		.s15 { fill: #2b4163 } 
		.s16 { fill: #ff8762 } 
		.s17 { fill: #2b1710 } 
		.s18 { fill: #693e2f } 
		.s19 { fill: #ff7a52 } 
		.s20 { fill: #36527d } 
		.s21 { fill: #e0e0e0 } 
		.s22 { fill: #253b59 } 
		.s23 { fill: #19273b } 
		.s24 { fill: #e8f3ff } 
		.s25 { fill: #ff7e5e } 
		.s26 { fill: #e0b3a8 } 
		.s27 { fill: url(#g1) } 
		.s28 { fill: url(#g2) } 
		.s29 { fill: #ff7e57 } 
		.s30 { fill: #c23455 } 
		.s31 { fill: #f08a9a } 
		.s32 { fill: #fabcc6 } 
		.s33 { fill: #d9d9d9 } 
		.s34 { fill: #b28931 } 
		.s35 { fill: #e7b13c } 
		.s36 { fill: #decfb0 } 
		.s37 { fill: #a84e5c } 
		.s38 { fill: #b3d4f2 } 
		.s39 { fill: #e0c9c0 } 
		.s40 { fill: url(#g3) } 
		.s41 { fill: #7d2727 } 
	</style>
	<g id="_Artboards_">
	</g>
	<g id="Layer 1">
		<g id="&lt;Group&gt;">
			<g id="&lt;Group&gt;">
				<g id="&lt;Group&gt;">
				</g>
				<g id="&lt;Group&gt;">
					<g id="&lt;Group&gt;" style="mix-blend-mode: multiply">
						<g id="&lt;Group&gt;">
						</g>
					</g>
				</g>
			</g>
			<g id="&lt;Group&gt;">
				<g id="&lt;Group&gt;">
				</g>
				<g id="&lt;Group&gt;">
					<g id="&lt;Group&gt;" style="mix-blend-mode: multiply">
						<g id="&lt;Group&gt;">
						</g>
					</g>
				</g>
			</g>
			<g id="&lt;Group&gt;">
				<g id="&lt;Group&gt;">
				</g>
				<g id="&lt;Group&gt;">
					<g id="&lt;Group&gt;" style="mix-blend-mode: multiply">
						<g id="&lt;Group&gt;">
						</g>
					</g>
				</g>
			</g>
			<g id="&lt;Group&gt;">
				<g id="&lt;Group&gt;">
				</g>
				<g id="&lt;Group&gt;">
					<g id="&lt;Group&gt;" style="mix-blend-mode: multiply">
						<g id="&lt;Group&gt;">
						</g>
					</g>
				</g>
			</g>
			<g id="&lt;Group&gt;">
				<g id="&lt;Group&gt;">
					<g id="&lt;Group&gt;">
						<path id="&lt;Compound Path&gt;" fill-rule="evenodd" class="s0" d="m1720.1 481.2l-0.2-0.4c-2.6-6-8-10.6-14.3-12.1l-0.5-0.1 3.8-14.7 0.4 0.1c10.8 2.7 20 10.4 24.5 20.6l0.2 0.5zm-13.9-13.4c6.3 1.7 11.6 6.2 14.3 12.1l12.2-5.3c-4.4-9.6-13-16.9-23.2-19.6z"/>
					</g>
				</g>
				<g id="&lt;Group&gt;">
					<g id="&lt;Group&gt;">
						<g id="&lt;Group&gt;">
							<path id="&lt;Compound Path&gt;" fill-rule="evenodd" class="s0" d="m1692.5 533c-20.1 0-36.4-16.4-36.4-36.4 0-20.1 16.3-36.4 36.4-36.4 2.9 0 5.9 0.4 8.9 1.2l0.4 0.1-3.7 14.6-0.5-0.1q-2.6-0.6-5.1-0.6c-11.7 0-21.2 9.5-21.2 21.2 0 11.7 9.5 21.2 21.2 21.2 3.3 0 6.4-0.8 9.4-2.2l0.4-0.2 7 13.4-0.4 0.2c-5.2 2.6-10.7 4-16.4 4zm0-71.8c-19.5 0-35.4 15.9-35.4 35.4 0 19.5 15.9 35.4 35.4 35.4 5.4 0 10.6-1.2 15.5-3.6l-6.1-11.8c-3 1.4-6.1 2.2-9.4 2.2-12.2 0-22.2-10-22.2-22.2 0-12.2 10-22.2 22.2-22.2q2.4 0 4.9 0.6l3.3-12.8c-2.8-0.7-5.5-1-8.2-1z"/>
						</g>
					</g>
					<g id="&lt;Group&gt;">
						<g id="&lt;Group&gt;">
							<path id="&lt;Compound Path&gt;" fill-rule="evenodd" class="s0" d="m1711.7 527.5l-8.3-12.7 0.4-0.3c6.2-3.9 9.9-10.6 9.9-17.9 0-2.9-0.6-5.8-1.8-8.5l-0.2-0.4 13.9-6.1 0.2 0.4c2 4.6 3.1 9.5 3.1 14.6 0 12.4-6.3 23.9-16.8 30.6zm-7-12.4l7.3 11.1c10-6.6 15.9-17.6 15.9-29.6 0-4.7-0.9-9.4-2.8-13.7l-12.1 5.3c1.1 2.7 1.7 5.5 1.7 8.4 0 7.5-3.8 14.4-10 18.5z"/>
						</g>
					</g>
				</g>
			</g>
			<g id="&lt;Group&gt;">
				<g id="&lt;Group&gt;">
					<path id="&lt;Compound Path&gt;" class="s0" d="m603.1 742.6c-3.7 0-7.5-0.2-11.3-0.5-1-0.1-1.7-1-1.6-2 0-1 0.9-1.8 2-1.7 7.3 0.7 14.8 0.6 22.1 0 1-0.1 1.9 0.6 2 1.7 0.1 1-0.7 1.9-1.7 2-3.8 0.3-7.6 0.5-11.5 0.5zm-33.2-4.6q-0.2 0-0.5-0.1c-7.3-2-14.4-4.8-21.2-8.2-0.9-0.4-1.3-1.5-0.9-2.5 0.5-0.9 1.6-1.2 2.5-0.8 6.6 3.3 13.6 6 20.6 8 1 0.3 1.6 1.3 1.3 2.3-0.2 0.8-1 1.3-1.8 1.3zm66.6 0c-0.8 0-1.6-0.6-1.8-1.4-0.3-1 0.3-2 1.3-2.3 7.1-2 14-4.7 20.6-8 0.9-0.4 2-0.1 2.5 0.9 0.4 0.9 0 2-0.9 2.4-6.8 3.4-13.9 6.2-21.2 8.3q-0.3 0.1-0.5 0.1zm-106.6-19.9q-0.6 0-1.1-0.4c-6-4.5-11.7-9.7-16.8-15.3-0.7-0.8-0.7-1.9 0.1-2.6 0.7-0.7 1.9-0.7 2.6 0.1 5 5.4 10.5 10.4 16.3 14.9 0.9 0.6 1 1.8 0.4 2.6-0.4 0.5-0.9 0.7-1.5 0.7zm146.6-0.1c-0.6 0-1.1-0.3-1.5-0.7-0.6-0.8-0.5-2 0.3-2.6 5.9-4.5 11.4-9.5 16.4-14.9 0.7-0.8 1.8-0.8 2.6-0.1 0.7 0.6 0.8 1.8 0.1 2.6-5.1 5.6-10.8 10.7-16.8 15.3q-0.5 0.4-1.1 0.4zm-176.7-32.9c-0.6 0-1.2-0.3-1.6-0.9-4-6.4-7.4-13.3-10.2-20.3-0.4-1 0.1-2 1.1-2.4 0.9-0.4 2 0.1 2.4 1 2.6 6.9 6 13.5 9.8 19.8 0.6 0.9 0.3 2-0.5 2.5q-0.5 0.3-1 0.3zm206.8-0.1q-0.5 0-1-0.3c-0.9-0.5-1.1-1.7-0.6-2.6 3.9-6.2 7.2-12.9 9.9-19.7 0.3-1 1.4-1.5 2.3-1.1 1 0.4 1.5 1.5 1.1 2.4-2.7 7.1-6.2 13.9-10.2 20.4-0.3 0.6-0.9 0.9-1.5 0.9zm-223-41.5c-0.9 0-1.7-0.6-1.8-1.5-1.4-7.5-2.1-15.1-2.2-22.7 0-1 0.9-1.9 1.9-1.9q0 0 0 0c1 0 1.8 0.9 1.8 1.9 0.1 7.4 0.7 14.8 2.1 22 0.2 1-0.5 2-1.5 2.2q-0.2 0-0.3 0zm239.1-0.2q-0.2 0-0.3 0c-1-0.2-1.7-1.2-1.5-2.2 1.3-7.2 2-14.6 2-22 0-1 0.8-2 1.8-2q0 0 0.1 0c1 0 1.8 0.6 1.8 1.6 0 0 0 0.2 0 0.2q0 11.7-2.1 22.9c-0.1 0.9-0.9 1.5-1.8 1.5zm-239.2-44.5q-0.2 0-0.3 0c-1-0.2-1.7-1.2-1.5-2.2 1.4-7.5 3.4-14.8 6.2-21.9 0.3-1 1.4-1.4 2.4-1.1 0.9 0.4 1.4 1.5 1 2.4-2.6 6.9-4.6 14-6 21.3-0.1 0.9-0.9 1.5-1.8 1.5zm239.1-0.5c-0.8 0-1.6-0.6-1.8-1.5-1.3-7.3-3.4-14.4-6.1-21.3-0.3-0.9 0.1-2 1.1-2.4 0.9-0.3 2 0.1 2.4 1.1 2.7 7 4.8 14.4 6.3 21.9 0.1 1-0.5 1.9-1.5 2.1q-0.2 0.1-0.4 0.1zm-223-41.2q-0.5 0-1-0.3c-0.9-0.5-1.1-1.6-0.6-2.5 4-6.5 8.6-12.6 13.7-18.2 0.7-0.8 1.9-0.8 2.6-0.1 0.8 0.7 0.8 1.8 0.2 2.6-5 5.4-9.5 11.4-13.3 17.6-0.4 0.6-1 0.9-1.6 0.9zm206.8-0.4c-0.6 0-1.2-0.4-1.6-0.9-3.9-6.3-8.4-12.2-13.4-17.6-0.7-0.8-0.6-1.9 0.1-2.6 0.8-0.7 2-0.7 2.7 0.1 5.1 5.6 9.7 11.7 13.7 18.1 0.6 0.9 0.3 2-0.5 2.6q-0.5 0.3-1 0.3zm-176.8-32.7c-0.5 0-1.1-0.2-1.4-0.7-0.6-0.8-0.5-2 0.3-2.6 6.1-4.6 12.6-8.6 19.4-12 0.9-0.5 2-0.1 2.4 0.8 0.5 0.9 0.1 2-0.8 2.5-6.6 3.3-12.9 7.2-18.7 11.7q-0.6 0.3-1.2 0.3zm40-20c-0.8 0-1.6-0.5-1.8-1.3-0.3-1 0.3-2 1.3-2.3 7.3-2.1 14.8-3.5 22.4-4.2 1-0.1 1.9 0.6 2 1.6 0.1 1.1-0.7 2-1.7 2.1-7.3 0.7-14.6 2-21.7 4q-0.3 0.1-0.5 0.1z"/>
				</g>
			</g>
			<g id="&lt;Group&gt;">
				<g id="&lt;Group&gt;">
					<g id="&lt;Group&gt;">
						<path id="&lt;Compound Path&gt;" fill-rule="evenodd" class="s0" d="m674.4 528h-9.9v-31.6h9.9zm-8.9-1h8v-29.7h-8z"/>
					</g>
				</g>
				<g id="&lt;Group&gt;">
					<g id="&lt;Group&gt;">
						<path id="&lt;Compound Path&gt;" fill-rule="evenodd" class="s0" d="m659.1 528h-9.9v-42.7h9.9zm-8.9-1h8v-40.8h-8z"/>
					</g>
				</g>
				<g id="&lt;Group&gt;">
					<g id="&lt;Group&gt;">
						<path id="&lt;Compound Path&gt;" fill-rule="evenodd" class="s0" d="m643.9 528h-10v-54.3h10zm-9-1h8v-52.3h-8z"/>
					</g>
				</g>
				<g id="&lt;Group&gt;">
					<g id="&lt;Group&gt;">
						<path id="&lt;Compound Path&gt;" fill-rule="evenodd" class="s0" d="m689.7 528h-9.9v-43h9.9zm-9-0.9h8.1v-41.1h-8.1z"/>
					</g>
				</g>
				<g id="&lt;Group&gt;">
					<g id="&lt;Group&gt;">
						<path id="&lt;Compound Path&gt;" fill-rule="evenodd" class="s0" d="m705 528h-9.9v-52.2h9.9zm-9-0.9h8v-50.3h-8z"/>
					</g>
				</g>
				<g id="&lt;Group&gt;">
					<g id="&lt;Group&gt;">
						<path id="&lt;Path&gt;" class="s0" d="m671.4 477.5q-0.1 0-0.1 0l-34.4-9.8c-0.2-0.1-0.4-0.3-0.3-0.6 0.1-0.2 0.3-0.4 0.6-0.3l34.1 9.8 34-18.4c0.2-0.1 0.5-0.1 0.6 0.2 0.1 0.2 0 0.5-0.2 0.6l-34.1 18.5q-0.1 0-0.2 0z"/>
					</g>
				</g>
				<g id="&lt;Group&gt;">
					<g id="&lt;Group&gt;">
						<path id="&lt;Path&gt;" class="s0" d="m704.1 465.7q-0.1 0-0.1 0c-0.3-0.1-0.4-0.4-0.3-0.6l3.1-7.4h-8.2c-0.3 0-0.5-0.2-0.5-0.5 0-0.2 0.2-0.4 0.5-0.4h8.9q0.2 0 0.4 0.2 0.1 0.2 0 0.4l-3.3 8c-0.1 0.2-0.3 0.3-0.5 0.3z"/>
					</g>
				</g>
			</g>
			<g id="&lt;Group&gt;">
				<g id="&lt;Group&gt;">
					<g id="&lt;Group&gt;">
						<path id="&lt;Compound Path&gt;" fill-rule="evenodd" class="s0" d="m514.8 1127.4h-94.3c-0.4 0-0.7-0.3-0.7-0.6v-71.8c0-0.4 0.3-0.7 0.7-0.7h94.3c0.4 0 0.7 0.3 0.7 0.7v71.8c0 0.3-0.3 0.6-0.7 0.6zm-93.7-1.3h93.1v-70.5h-93.1z"/>
					</g>
				</g>
				<g id="&lt;Group&gt;">
					<g id="&lt;Group&gt;">
						<path id="&lt;Compound Path&gt;" fill-rule="evenodd" class="s0" d="m517.8 1135.6h-100.3c-0.4 0-0.6-0.3-0.6-0.6v-8.2c0-0.4 0.2-0.7 0.6-0.7h100.3c0.3 0 0.6 0.3 0.6 0.7v8.2c0 0.3-0.3 0.6-0.6 0.6zm-99.6-1.3h98.9v-6.9h-98.9z"/>
					</g>
				</g>
				<g id="&lt;Group&gt;">
					<g id="&lt;Group&gt;">
						<path id="&lt;Compound Path&gt;" fill-rule="evenodd" class="s0" d="m467.6 1149.8c-2.6 0-4.7-2.1-4.7-4.7 0-2.6 2.1-4.8 4.7-4.8 2.7 0 4.8 2.2 4.8 4.8 0 2.6-2.1 4.7-4.8 4.7zm0-8.2c-1.9 0-3.4 1.6-3.4 3.5 0 1.9 1.5 3.4 3.4 3.4 1.9 0 3.5-1.5 3.5-3.4 0-1.9-1.6-3.5-3.5-3.5z"/>
					</g>
				</g>
				<g id="&lt;Group&gt;">
					<g id="&lt;Group&gt;">
						<path id="&lt;Path&gt;" class="s0" d="m467.6 1141.5q0 0 0 0c-0.3-0.1-0.6-0.3-0.6-0.7v-5.6c0-0.4 0.3-0.7 0.7-0.7 0.3 0 0.6 0.3 0.6 0.7v5.6c0 0.4-0.3 0.7-0.7 0.7z"/>
					</g>
				</g>
				<g id="&lt;Group&gt;">
					<g id="&lt;Group&gt;">
						<path id="&lt;Compound Path&gt;" fill-rule="evenodd" class="s0" d="m444.7 1120.6h-13.8c-0.4 0-0.7-0.3-0.7-0.7v-33.9c0-0.4 0.3-0.7 0.7-0.7h13.8c0.4 0 0.7 0.3 0.7 0.7v33.9c0 0.4-0.3 0.7-0.7 0.7zm-13.2-1.3h12.6v-32.7h-12.6z"/>
					</g>
				</g>
				<g id="&lt;Group&gt;">
					<g id="&lt;Group&gt;">
						<path id="&lt;Compound Path&gt;" fill-rule="evenodd" class="s0" d="m472 1120.6h-13.8c-0.4 0-0.6-0.3-0.6-0.7v-47.6c0-0.3 0.2-0.6 0.6-0.6h13.8c0.4 0 0.7 0.3 0.7 0.6v47.6c0 0.4-0.3 0.7-0.7 0.7zm-13.1-1.3h12.5v-46.3h-12.5z"/>
					</g>
				</g>
				<g id="&lt;Group&gt;">
					<g id="&lt;Group&gt;">
						<path id="&lt;Compound Path&gt;" fill-rule="evenodd" class="s0" d="m501 1120.6h-13.9c-0.3 0-0.6-0.3-0.6-0.7v-57.4c0-0.4 0.3-0.7 0.6-0.7h13.9c0.3 0 0.6 0.3 0.6 0.7v57.4c0 0.4-0.3 0.7-0.6 0.7zm-13.2-1.3h12.5v-56.2h-12.5z"/>
					</g>
				</g>
			</g>
			<g id="&lt;Group&gt;">
				<g id="&lt;Group&gt;">
					<g id="&lt;Group&gt;">
						<path id="&lt;Compound Path&gt;" fill-rule="evenodd" class="s0" d="m2113.7 462.6h-94.4c-0.3 0-0.6-0.2-0.6-0.6v-71.8c0-0.4 0.3-0.7 0.6-0.7h94.4c0.3 0 0.6 0.3 0.6 0.7v71.8c0 0.4-0.3 0.6-0.6 0.6zm-93.7-1.3h93v-70.4h-93z"/>
					</g>
				</g>
				<g id="&lt;Group&gt;">
					<g id="&lt;Group&gt;">
						<path id="&lt;Compound Path&gt;" fill-rule="evenodd" class="s0" d="m2116.6 470.9h-100.2c-0.4 0-0.7-0.3-0.7-0.7v-8.2c0-0.4 0.3-0.7 0.7-0.7h100.2c0.4 0 0.7 0.3 0.7 0.7v8.2c0 0.4-0.3 0.7-0.7 0.7zm-99.6-1.4h99v-6.9h-99z"/>
					</g>
				</g>
				<g id="&lt;Group&gt;">
					<g id="&lt;Group&gt;">
						<path id="&lt;Compound Path&gt;" fill-rule="evenodd" class="s0" d="m2066.5 485.1c-2.6 0-4.8-2.1-4.8-4.8 0-2.6 2.2-4.7 4.8-4.7 2.6 0 4.8 2.1 4.8 4.7 0 2.7-2.2 4.8-4.8 4.8zm0-8.2c-1.9 0-3.5 1.5-3.5 3.4 0 1.9 1.6 3.5 3.5 3.5 1.9 0 3.4-1.6 3.4-3.5 0-1.9-1.5-3.4-3.4-3.4z"/>
					</g>
				</g>
				<g id="&lt;Group&gt;">
					<g id="&lt;Group&gt;">
						<path id="&lt;Path&gt;" class="s0" d="m2066.5 476.7q0 0 0 0c-0.4 0-0.7-0.3-0.7-0.7l0.1-5.6c0-0.3 0.2-0.7 0.6-0.6 0.4 0 0.7 0.3 0.7 0.6l-0.1 5.6c0 0.4-0.2 0.7-0.6 0.7z"/>
					</g>
				</g>
				<g id="&lt;Group&gt;">
					<g id="&lt;Group&gt;">
						<path id="&lt;Compound Path&gt;" fill-rule="evenodd" class="s0" d="m2043.6 455.8h-13.9c-0.3 0-0.6-0.3-0.6-0.6v-34c0-0.4 0.3-0.7 0.6-0.7h13.9c0.3 0 0.6 0.3 0.6 0.7v34c0 0.3-0.3 0.6-0.6 0.6zm-13.2-1.3h12.5v-32.6h-12.5z"/>
					</g>
				</g>
				<g id="&lt;Group&gt;">
					<g id="&lt;Group&gt;">
						<path id="&lt;Compound Path&gt;" fill-rule="evenodd" class="s0" d="m2070.9 455.8h-13.8c-0.4 0-0.7-0.3-0.7-0.6v-47.6c0-0.4 0.3-0.7 0.7-0.7h13.8c0.4 0 0.7 0.3 0.7 0.7v47.6c0 0.3-0.3 0.6-0.7 0.6zm-13.2-1.3h12.5v-46.3h-12.5z"/>
					</g>
				</g>
				<g id="&lt;Group&gt;">
					<g id="&lt;Group&gt;">
						<path id="&lt;Compound Path&gt;" fill-rule="evenodd" class="s0" d="m2099.8 455.8h-13.8c-0.4 0-0.7-0.3-0.7-0.6v-57.5c0-0.3 0.3-0.6 0.7-0.6h13.8c0.4 0 0.7 0.3 0.7 0.6v57.5c0 0.3-0.3 0.6-0.7 0.6zm-13.2-1.3h12.6v-56.1h-12.6z"/>
					</g>
				</g>
			</g>
			<g id="&lt;Group&gt;">
				<g id="&lt;Group&gt;">
					<g id="&lt;Group&gt;">
						<path id="&lt;Compound Path&gt;" fill-rule="evenodd" class="s0" d="m1131.1 517.9h-8.5c-0.4 0-0.7-0.3-0.7-0.6v-5c-3-0.8-5.9-2-8.5-3.9l-3.7 3.8c-0.3 0.3-0.7 0.3-1 0l-6-6c-0.3-0.3-0.3-0.7 0-1l4-3.9c-1.6-2.6-2.7-5.4-3.3-8.3h-5.8c-0.4 0-0.6-0.3-0.6-0.7v-8.5c0-0.4 0.2-0.7 0.6-0.7h5.9c0.6-2.9 1.7-5.6 3.3-8.1l-4.1-4.1c-0.3-0.3-0.3-0.7 0-1l6-6c0.3-0.2 0.7-0.2 1 0l3.9 3.9c2.5-1.7 5.3-3 8.3-3.7v-5.3c0-0.3 0.3-0.6 0.7-0.6h8.5c0.4 0 0.7 0.3 0.7 0.6v5c3.2 0.5 6.2 1.6 9 3.4l3.2-3.3c0.3-0.2 0.7-0.2 1 0l6 6q0.2 0.2 0.2 0.5 0 0.3-0.2 0.5l-3.1 3c2 2.8 3.3 5.9 4 9.2h4.2c0.3 0 0.6 0.3 0.6 0.7v8.5c0 0.4-0.3 0.7-0.6 0.7h-4.1c-0.7 3.3-2 6.5-3.9 9.3l2.9 2.9q0.2 0.2 0.2 0.5 0 0.3-0.2 0.5l-6 6c-0.3 0.3-0.7 0.3-1 0l-3.1-3.1c-2.8 1.8-5.8 3-9.1 3.5v4.7c0 0.3-0.3 0.6-0.7 0.6zm-7.9-1.3h7.3v-4.5c0-0.4 0.2-0.6 0.5-0.7 3.5-0.5 6.7-1.7 9.7-3.7 0.2-0.1 0.6-0.1 0.8 0.1l3 3 5.1-5.1-2.9-2.9c-0.2-0.2-0.2-0.6 0-0.8 2.1-2.9 3.5-6.3 4.1-9.8 0-0.3 0.3-0.5 0.6-0.5h4v-7.3h-4c-0.3 0-0.6-0.2-0.7-0.5-0.6-3.5-2-6.8-4.2-9.6-0.1-0.3-0.1-0.7 0.1-0.9l3-3-5.1-5.1-3.2 3.2c-0.2 0.2-0.6 0.2-0.8 0.1-2.9-1.9-6.1-3.1-9.5-3.6-0.3-0.1-0.5-0.3-0.5-0.7v-4.8h-7.3v5.2c0 0.3-0.2 0.5-0.5 0.6-3.2 0.7-6.1 2-8.8 3.9-0.2 0.2-0.6 0.2-0.8 0l-3.9-3.9-5.1 5.1 4 4c0.2 0.2 0.2 0.6 0.1 0.8-1.8 2.7-3 5.6-3.5 8.7-0.1 0.3-0.4 0.5-0.7 0.5h-5.7v7.3h5.7c0.3 0 0.5 0.2 0.6 0.5 0.5 3.2 1.7 6.1 3.5 8.8 0.1 0.2 0.1 0.6-0.1 0.8l-3.9 3.9 5.1 5.1 3.7-3.7c0.2-0.2 0.6-0.2 0.9-0.1 2.6 2 5.7 3.4 8.9 4.1 0.3 0.1 0.5 0.3 0.5 0.6zm4.5-13.6c-8.2 0-14.8-6.6-14.8-14.8 0-8.2 6.6-14.8 14.8-14.8 7.3 0 13.5 5.2 14.6 12.5v4.6c-0.4 2.8-1.6 5.4-3.5 7.5l-1.3 1.3q0 0 0 0c-2.7 2.4-6.2 3.7-9.8 3.7zm0-28.3c-7.4 0-13.5 6.1-13.5 13.5 0 7.5 6.1 13.5 13.5 13.5 3.3 0 6.4-1.2 8.9-3.3l1.3-1.3c1.6-1.9 2.7-4.2 3.1-6.7v-4.4c-1-6.5-6.6-11.3-13.3-11.3zm9.4 24.1z"/>
					</g>
				</g>
				<g id="&lt;Group&gt;">
					<g id="&lt;Group&gt;">
						<path id="&lt;Compound Path&gt;" fill-rule="evenodd" class="s0" d="m1085.8 517.9q-0.1 0-0.3-0.1-0.2-0.1-0.3-0.3l-1.3-4.2c-0.9 0-1.9-0.1-2.9-0.4l-2.1 4q-0.1 0.2-0.3 0.3-0.3 0.1-0.5 0l-4-2.1c-0.3-0.2-0.4-0.6-0.2-0.9l2.1-4.1q-0.9-1-1.7-2.1l-4.5 1.4q-0.2 0.1-0.5-0.1-0.2-0.1-0.3-0.4l-1.3-4.2c-0.1-0.3 0.1-0.7 0.4-0.8l4.6-1.4q-0.1-1.4 0.2-2.7l-4.2-2.2c-0.3-0.1-0.4-0.5-0.3-0.9l2.1-3.9q0.1-0.2 0.4-0.3 0.2-0.1 0.5 0l4 2.2q1-1.1 2.1-1.9l-1.3-4.3q-0.1-0.2 0.1-0.5 0.1-0.2 0.3-0.3l4.3-1.3q0.2-0.1 0.5 0 0.2 0.2 0.3 0.4l1.3 4.1q1.5-0.1 3 0.2l2-3.7q0.1-0.2 0.3-0.3 0.3-0.1 0.5 0l4 2.1c0.3 0.1 0.4 0.5 0.2 0.9l-1.8 3.5q1.3 1 2.2 2.4l3.7-1.1q0.2-0.1 0.5 0 0.2 0.2 0.3 0.4l1.3 4.3c0.1 0.3-0.1 0.7-0.4 0.8l-3.7 1.1q0.1 1.7-0.3 3.3l3.4 1.8c0.3 0.2 0.4 0.6 0.3 0.9l-2.1 4c-0.2 0.3-0.6 0.4-0.9 0.2l-3.5-1.8q-1.1 1.1-2.5 1.9l1.2 4c0.1 0.3-0.1 0.7-0.4 0.8l-4.3 1.3q-0.1 0-0.2 0zm-1.4-5.9c0.3 0 0.5 0.2 0.6 0.4l1.3 4 2.9-0.9-1.1-3.8c-0.1-0.3 0-0.6 0.3-0.8q1.7-0.9 2.9-2.3c0.2-0.2 0.6-0.3 0.8-0.1l3.5 1.8 1.4-2.8-3.3-1.7c-0.3-0.2-0.4-0.5-0.3-0.8q0.6-1.9 0.4-3.9c-0.1-0.3 0.1-0.6 0.4-0.7l3.6-1.1-1-3-3.5 1.2c-0.3 0-0.7-0.1-0.8-0.3q-1-1.7-2.5-3c-0.3-0.1-0.4-0.5-0.2-0.8l1.8-3.4-2.8-1.4-1.8 3.5c-0.2 0.3-0.5 0.4-0.8 0.3q-1.8-0.4-3.6-0.1c-0.3 0-0.6-0.2-0.7-0.5l-1.3-4-2.9 1 1.2 4.1c0.1 0.3 0 0.6-0.2 0.8q-1.5 0.9-2.6 2.2c-0.2 0.3-0.5 0.3-0.8 0.2l-4-2.1-1.4 2.8 4.1 2.1c0.2 0.1 0.4 0.5 0.3 0.7q-0.4 1.6-0.3 3.3c0 0.3-0.2 0.6-0.4 0.7l-4.5 1.3 1 3 4.4-1.3c0.3-0.1 0.6 0 0.7 0.3q0.8 1.4 2.1 2.6c0.2 0.2 0.3 0.5 0.1 0.7l-2.1 4 2.8 1.5 2-3.9c0.2-0.2 0.5-0.4 0.8-0.3q1.7 0.6 3.5 0.5 0 0 0 0zm-0.5-5.4q-1.1 0-2.1-0.5c-1.1-0.6-1.9-1.5-2.2-2.7-0.4-1.1-0.3-2.4 0.3-3.4 0.6-1.1 1.5-1.9 2.7-2.2 2.3-0.8 4.9 0.5 5.6 2.9 0.4 1.2 0.3 2.4-0.3 3.5-0.6 1.1-1.5 1.8-2.7 2.2q-0.6 0.2-1.3 0.2zm0-7.7q-0.5 0-1 0.1c-0.8 0.3-1.5 0.8-1.9 1.6-0.4 0.7-0.4 1.6-0.2 2.4 0.3 0.8 0.8 1.5 1.6 1.9 0.8 0.4 1.6 0.5 2.4 0.2 0.9-0.2 1.5-0.8 1.9-1.5 0.4-0.8 0.5-1.7 0.3-2.5-0.5-1.4-1.7-2.2-3.1-2.2z"/>
					</g>
				</g>
			</g>
			<g id="&lt;Group&gt;">
				<g id="&lt;Group&gt;">
					<g id="&lt;Group&gt;">
						<path id="&lt;Compound Path&gt;" fill-rule="evenodd" class="s0" d="m2525.6 1145.7h-8.6c-0.4 0-0.7-0.3-0.7-0.6v-5c-3-0.8-5.9-2.1-8.4-3.9l-3.8 3.8c-0.3 0.3-0.7 0.3-0.9 0l-6.1-6c-0.2-0.3-0.2-0.7 0-1l4-3.9c-1.6-2.6-2.7-5.4-3.3-8.3h-5.8c-0.3 0-0.6-0.3-0.6-0.7v-8.5c0-0.4 0.3-0.7 0.6-0.7h5.9c0.6-2.9 1.7-5.6 3.3-8.1l-4.1-4.1c-0.2-0.3-0.2-0.7 0-1l6.1-6c0.2-0.2 0.6-0.2 0.9 0l3.9 3.9c2.6-1.7 5.4-3 8.3-3.7v-5.3c0-0.3 0.3-0.6 0.7-0.6h8.6c0.3 0 0.6 0.3 0.6 0.6v5c3.2 0.5 6.2 1.6 9 3.4l3.3-3.3c0.2-0.2 0.6-0.2 0.9 0l6 6q0.2 0.2 0.2 0.5 0 0.3-0.2 0.5l-3 3c1.9 2.8 3.3 5.9 4 9.2h4.1c0.4 0 0.7 0.3 0.7 0.7v8.5c0 0.4-0.3 0.7-0.7 0.7h-4.1c-0.6 3.3-2 6.5-3.9 9.3l2.9 2.9q0.2 0.2 0.2 0.5 0 0.3-0.2 0.5l-6 6c-0.3 0.3-0.7 0.3-0.9 0l-3.1-3.1c-2.8 1.8-5.9 3-9.2 3.5v4.7c0 0.3-0.3 0.6-0.6 0.6zm-7.9-1.3h7.2v-4.5c0-0.4 0.2-0.7 0.6-0.7 3.4-0.5 6.7-1.7 9.6-3.7 0.2-0.1 0.6-0.1 0.8 0.1l3 3 5.1-5.1-2.8-2.9c-0.3-0.2-0.3-0.6-0.1-0.8 2.1-2.9 3.5-6.3 4.1-9.8 0.1-0.3 0.4-0.5 0.7-0.5h4v-7.3h-4.1c-0.3 0-0.6-0.2-0.6-0.5-0.7-3.5-2.1-6.8-4.2-9.6-0.2-0.3-0.2-0.7 0-0.9l3-3-5.1-5.1-3.2 3.2c-0.2 0.2-0.5 0.2-0.8 0-2.9-1.8-6-3-9.4-3.5-0.4-0.1-0.6-0.3-0.6-0.7v-4.8h-7.2v5.1c0 0.4-0.3 0.6-0.6 0.7-3.1 0.7-6.1 2-8.7 3.9-0.3 0.2-0.7 0.2-0.9 0l-3.9-3.9-5.1 5.1 4 4c0.2 0.2 0.3 0.6 0.1 0.8-1.8 2.7-2.9 5.6-3.5 8.7-0.1 0.3-0.3 0.5-0.7 0.5h-5.7v7.3h5.7c0.3 0 0.6 0.2 0.6 0.5 0.6 3.2 1.7 6.1 3.5 8.8 0.2 0.2 0.1 0.6-0.1 0.8l-3.9 3.9 5.1 5.1 3.7-3.7c0.3-0.2 0.6-0.2 0.9-0.1 2.7 2 5.7 3.4 8.9 4.1 0.3 0.1 0.6 0.3 0.6 0.6zm4.4-13.6c-8.1 0-14.8-6.6-14.8-14.8 0-8.2 6.7-14.8 14.8-14.8 7.3 0 13.5 5.2 14.7 12.4v4.7c-0.5 2.8-1.7 5.4-3.6 7.5l-1.3 1.3q0 0 0 0c-2.7 2.4-6.2 3.7-9.8 3.7zm0-28.3c-7.4 0-13.5 6.1-13.5 13.5 0 7.5 6.1 13.5 13.5 13.5 3.3 0 6.5-1.2 8.9-3.3l1.3-1.3c1.6-1.9 2.8-4.2 3.2-6.7l-0.1-4.4c-1-6.5-6.6-11.3-13.3-11.3zm9.4 24.1z"/>
					</g>
				</g>
				<g id="&lt;Group&gt;">
					<g id="&lt;Group&gt;">
						<path id="&lt;Compound Path&gt;" fill-rule="evenodd" class="s0" d="m2480.3 1145.7q-0.2 0-0.3-0.1-0.3-0.1-0.4-0.3l-1.3-4.2c-0.9 0-1.9-0.1-2.8-0.4l-2.1 4q-0.2 0.2-0.4 0.3-0.3 0.1-0.5 0l-3.9-2.1c-0.4-0.2-0.5-0.6-0.3-0.9l2.2-4.1q-1-1-1.7-2.1l-4.5 1.4q-0.3 0-0.5-0.1-0.3-0.1-0.4-0.4l-1.3-4.2c-0.1-0.3 0.1-0.7 0.5-0.8l4.5-1.4q0-1.4 0.2-2.7l-4.2-2.2c-0.3-0.1-0.4-0.5-0.2-0.9l2-3.9q0.2-0.2 0.4-0.3 0.3-0.1 0.5 0l4.1 2.2q0.9-1.1 2.1-1.9l-1.4-4.3q0-0.2 0.1-0.5 0.1-0.2 0.4-0.3l4.2-1.3q0.3-0.1 0.5 0 0.2 0.2 0.3 0.4l1.3 4.1q1.5-0.1 3.1 0.2l1.9-3.7q0.1-0.2 0.4-0.3 0.2-0.1 0.5 0l3.9 2.1c0.3 0.1 0.4 0.5 0.3 0.9l-1.9 3.5q1.3 1 2.2 2.4l3.7-1.1q0.3-0.1 0.5 0 0.2 0.2 0.3 0.4l1.3 4.3c0.1 0.3-0.1 0.7-0.4 0.8l-3.7 1.1q0.1 1.7-0.3 3.3l3.4 1.8c0.3 0.2 0.5 0.6 0.3 0.9l-2.1 4c-0.1 0.3-0.5 0.4-0.8 0.2l-3.6-1.8q-1.1 1.1-2.5 1.9l1.2 3.9c0.1 0.4-0.1 0.8-0.4 0.9l-4.2 1.3q-0.1 0-0.2 0zm-1.5-5.9c0.3 0 0.6 0.2 0.6 0.4l1.3 4 3-0.9-1.2-3.8c-0.1-0.3 0-0.6 0.3-0.8q1.7-0.9 3-2.3c0.2-0.2 0.5-0.3 0.8-0.1l3.4 1.8 1.4-2.8-3.3-1.7c-0.3-0.2-0.4-0.5-0.3-0.8q0.6-1.9 0.4-3.9c0-0.3 0.2-0.6 0.5-0.7l3.5-1.1-0.9-3-3.6 1.2c-0.3 0-0.6-0.1-0.8-0.4q-0.9-1.6-2.5-2.9c-0.2-0.1-0.3-0.5-0.2-0.8l1.8-3.4-2.8-1.4-1.8 3.5c-0.1 0.3-0.5 0.4-0.7 0.3q-1.8-0.4-3.7-0.2c-0.3 0.1-0.6-0.1-0.7-0.4l-1.2-4-3 1 1.3 4.1c0.1 0.3-0.1 0.6-0.3 0.8q-1.5 0.9-2.5 2.2c-0.2 0.3-0.6 0.3-0.9 0.2l-3.9-2.1-1.5 2.8 4.1 2.1c0.3 0.1 0.4 0.5 0.3 0.7q-0.4 1.6-0.3 3.3c0.1 0.3-0.1 0.6-0.4 0.7l-4.4 1.3 0.9 3 4.4-1.3c0.3-0.1 0.6 0 0.8 0.3q0.8 1.4 2 2.6c0.2 0.2 0.3 0.5 0.1 0.7l-2 4 2.7 1.5 2-3.9c0.2-0.2 0.5-0.4 0.8-0.3q1.7 0.6 3.5 0.5 0 0 0 0zm-0.5-5.4q-1.1 0-2.1-0.5c-1-0.6-1.8-1.5-2.2-2.7-0.4-1.1-0.2-2.4 0.3-3.4 0.6-1.1 1.5-1.9 2.7-2.2 2.4-0.8 4.9 0.5 5.6 2.9 0.4 1.2 0.3 2.4-0.3 3.5-0.5 1-1.5 1.8-2.6 2.2q-0.7 0.2-1.4 0.2zm0-7.7q-0.5 0-0.9 0.1c-0.8 0.3-1.5 0.8-1.9 1.6-0.4 0.7-0.5 1.6-0.2 2.4 0.2 0.8 0.8 1.5 1.5 1.9 0.8 0.4 1.7 0.5 2.5 0.2 0.8-0.2 1.5-0.8 1.9-1.5 0.4-0.8 0.5-1.7 0.2-2.5-0.4-1.4-1.7-2.2-3.1-2.2z"/>
					</g>
				</g>
			</g>
			<g id="&lt;Group&gt;">
				<g id="&lt;Group&gt;">
					<g id="&lt;Group&gt;">
						<g id="&lt;Group&gt;" style="mix-blend-mode: multiply">
							<g id="&lt;Group&gt;">
								<path id="&lt;Path&gt;" class="s1" d="m2317.7 490.6c0 5.3-4.3 9.6-9.6 9.6-5.4 0-9.7-4.3-9.7-9.6 0-5.4 4.3-9.7 9.7-9.7 5.3 0 9.6 4.3 9.6 9.7z"/>
							</g>
						</g>
						<g id="&lt;Group&gt;" style="mix-blend-mode: multiply">
							<g id="&lt;Group&gt;">
								<path id="&lt;Path&gt;" class="s1" d="m2360.8 490.6c0 5.3-4.3 9.6-9.7 9.6-5.3 0-9.6-4.3-9.6-9.6 0-5.4 4.3-9.7 9.6-9.7 5.4 0 9.7 4.3 9.7 9.7z"/>
							</g>
						</g>
						<g id="&lt;Group&gt;" style="mix-blend-mode: multiply">
							<g id="&lt;Group&gt;">
								<path id="&lt;Path&gt;" class="s1" d="m2403.9 490.6c0 5.3-4.4 9.6-9.7 9.6-5.3 0-9.6-4.3-9.6-9.6 0-5.4 4.3-9.7 9.6-9.7 5.3 0 9.7 4.3 9.7 9.7z"/>
							</g>
						</g>
						<g id="&lt;Group&gt;" style="mix-blend-mode: multiply">
							<g id="&lt;Group&gt;">
								<path id="&lt;Path&gt;" class="s1" d="m2446.9 490.6c0 5.3-4.3 9.6-9.6 9.6-5.3 0-9.6-4.3-9.6-9.6 0-5.4 4.3-9.7 9.6-9.7 5.3 0 9.6 4.3 9.6 9.7z"/>
							</g>
						</g>
						<g id="&lt;Group&gt;" style="mix-blend-mode: multiply">
							<g id="&lt;Group&gt;">
								<path id="&lt;Path&gt;" class="s1" d="m2490 490.6c0 5.3-4.3 9.6-9.6 9.6-5.3 0-9.6-4.3-9.6-9.6 0-5.4 4.3-9.7 9.6-9.7 5.3 0 9.6 4.3 9.6 9.7z"/>
							</g>
						</g>
					</g>
					<g id="&lt;Group&gt;">
						<g id="&lt;Group&gt;" style="mix-blend-mode: multiply">
							<g id="&lt;Group&gt;">
								<path id="&lt;Path&gt;" class="s1" d="m2317.7 533.6c0 5.4-4.3 9.7-9.6 9.7-5.4 0-9.7-4.3-9.7-9.7 0-5.3 4.3-9.6 9.7-9.6 5.3 0 9.6 4.3 9.6 9.6z"/>
							</g>
						</g>
						<g id="&lt;Group&gt;" style="mix-blend-mode: multiply">
							<g id="&lt;Group&gt;">
								<path id="&lt;Path&gt;" class="s1" d="m2360.8 533.6c0 5.4-4.3 9.7-9.7 9.7-5.3 0-9.6-4.3-9.6-9.7 0-5.3 4.3-9.6 9.6-9.6 5.4 0 9.7 4.3 9.7 9.6z"/>
							</g>
						</g>
						<g id="&lt;Group&gt;" style="mix-blend-mode: multiply">
							<g id="&lt;Group&gt;">
								<path id="&lt;Path&gt;" class="s1" d="m2403.9 533.6c0 5.4-4.4 9.7-9.7 9.7-5.3 0-9.6-4.3-9.6-9.7 0-5.3 4.3-9.6 9.6-9.6 5.3 0 9.7 4.3 9.7 9.6z"/>
							</g>
						</g>
						<g id="&lt;Group&gt;" style="mix-blend-mode: multiply">
							<g id="&lt;Group&gt;">
								<path id="&lt;Path&gt;" class="s1" d="m2446.9 533.6c0 5.4-4.3 9.7-9.6 9.7-5.3 0-9.6-4.3-9.6-9.7 0-5.3 4.3-9.6 9.6-9.6 5.3 0 9.6 4.3 9.6 9.6z"/>
							</g>
						</g>
						<g id="&lt;Group&gt;" style="mix-blend-mode: multiply">
							<g id="&lt;Group&gt;">
								<path id="&lt;Path&gt;" class="s1" d="m2490 533.6c0 5.4-4.3 9.7-9.6 9.7-5.3 0-9.6-4.3-9.6-9.7 0-5.3 4.3-9.6 9.6-9.6 5.3 0 9.6 4.3 9.6 9.6z"/>
							</g>
						</g>
					</g>
				</g>
				<g id="&lt;Group&gt;">
					<g id="&lt;Group&gt;">
						<g id="&lt;Group&gt;" style="mix-blend-mode: multiply">
							<g id="&lt;Group&gt;">
								<path id="&lt;Path&gt;" class="s1" d="m2317.7 574.7c0 5.3-4.3 9.6-9.6 9.6-5.4 0-9.7-4.3-9.7-9.6 0-5.4 4.3-9.7 9.7-9.7 5.3 0 9.6 4.3 9.6 9.7z"/>
							</g>
						</g>
						<g id="&lt;Group&gt;" style="mix-blend-mode: multiply">
							<g id="&lt;Group&gt;">
								<path id="&lt;Path&gt;" class="s1" d="m2360.8 574.7c0 5.3-4.3 9.6-9.7 9.6-5.3 0-9.6-4.3-9.6-9.6 0-5.4 4.3-9.7 9.6-9.7 5.4 0 9.7 4.3 9.7 9.7z"/>
							</g>
						</g>
						<g id="&lt;Group&gt;" style="mix-blend-mode: multiply">
							<g id="&lt;Group&gt;">
								<path id="&lt;Path&gt;" class="s1" d="m2403.9 574.7c0 5.3-4.4 9.6-9.7 9.6-5.3 0-9.6-4.3-9.6-9.6 0-5.4 4.3-9.7 9.6-9.7 5.3 0 9.7 4.3 9.7 9.7z"/>
							</g>
						</g>
						<g id="&lt;Group&gt;" style="mix-blend-mode: multiply">
							<g id="&lt;Group&gt;">
								<path id="&lt;Path&gt;" class="s1" d="m2446.9 574.7c0 5.3-4.3 9.6-9.6 9.6-5.3 0-9.6-4.3-9.6-9.6 0-5.4 4.3-9.7 9.6-9.7 5.3 0 9.6 4.3 9.6 9.7z"/>
							</g>
						</g>
						<g id="&lt;Group&gt;" style="mix-blend-mode: multiply">
							<g id="&lt;Group&gt;">
								<path id="&lt;Path&gt;" class="s1" d="m2490 574.7c0 5.3-4.3 9.6-9.6 9.6-5.3 0-9.6-4.3-9.6-9.6 0-5.4 4.3-9.7 9.6-9.7 5.3 0 9.6 4.3 9.6 9.7z"/>
							</g>
						</g>
					</g>
					<g id="&lt;Group&gt;">
						<g id="&lt;Group&gt;" style="mix-blend-mode: multiply">
							<g id="&lt;Group&gt;">
								<path id="&lt;Path&gt;" class="s1" d="m2317.7 617.7c0 5.4-4.3 9.7-9.6 9.7-5.4 0-9.7-4.3-9.7-9.7 0-5.3 4.3-9.6 9.7-9.6 5.3 0 9.6 4.3 9.6 9.6z"/>
							</g>
						</g>
						<g id="&lt;Group&gt;" style="mix-blend-mode: multiply">
							<g id="&lt;Group&gt;">
								<path id="&lt;Path&gt;" class="s1" d="m2360.8 617.7c0 5.4-4.3 9.7-9.7 9.7-5.3 0-9.6-4.3-9.6-9.7 0-5.3 4.3-9.6 9.6-9.6 5.4 0 9.7 4.3 9.7 9.6z"/>
							</g>
						</g>
						<g id="&lt;Group&gt;" style="mix-blend-mode: multiply">
							<g id="&lt;Group&gt;">
								<path id="&lt;Path&gt;" class="s1" d="m2403.9 617.7c0 5.4-4.4 9.7-9.7 9.7-5.3 0-9.6-4.3-9.6-9.7 0-5.3 4.3-9.6 9.6-9.6 5.3 0 9.7 4.3 9.7 9.6z"/>
							</g>
						</g>
						<g id="&lt;Group&gt;" style="mix-blend-mode: multiply">
							<g id="&lt;Group&gt;">
								<path id="&lt;Path&gt;" class="s1" d="m2446.9 617.7c0 5.4-4.3 9.7-9.6 9.7-5.3 0-9.6-4.3-9.6-9.7 0-5.3 4.3-9.6 9.6-9.6 5.3 0 9.6 4.3 9.6 9.6z"/>
							</g>
						</g>
						<g id="&lt;Group&gt;" style="mix-blend-mode: multiply">
							<g id="&lt;Group&gt;">
								<path id="&lt;Path&gt;" class="s1" d="m2490 617.7c0 5.4-4.3 9.7-9.6 9.7-5.3 0-9.6-4.3-9.6-9.7 0-5.3 4.3-9.6 9.6-9.6 5.3 0 9.6 4.3 9.6 9.6z"/>
							</g>
						</g>
					</g>
					<g id="&lt;Group&gt;">
						<g id="&lt;Group&gt;" style="mix-blend-mode: multiply">
							<g id="&lt;Group&gt;">
								<path id="&lt;Path&gt;" class="s1" d="m2317.7 660.8c0 5.3-4.3 9.7-9.6 9.7-5.4 0-9.7-4.4-9.7-9.7 0-5.3 4.3-9.6 9.7-9.6 5.3 0 9.6 4.3 9.6 9.6z"/>
							</g>
						</g>
						<g id="&lt;Group&gt;" style="mix-blend-mode: multiply">
							<g id="&lt;Group&gt;">
								<path id="&lt;Path&gt;" class="s1" d="m2360.8 660.8c0 5.3-4.3 9.7-9.7 9.7-5.3 0-9.6-4.4-9.6-9.7 0-5.3 4.3-9.6 9.6-9.6 5.4 0 9.7 4.3 9.7 9.6z"/>
							</g>
						</g>
						<g id="&lt;Group&gt;" style="mix-blend-mode: multiply">
							<g id="&lt;Group&gt;">
								<path id="&lt;Path&gt;" class="s1" d="m2403.9 660.8c0 5.3-4.4 9.7-9.7 9.7-5.3 0-9.6-4.4-9.6-9.7 0-5.3 4.3-9.6 9.6-9.6 5.3 0 9.7 4.3 9.7 9.6z"/>
							</g>
						</g>
						<g id="&lt;Group&gt;" style="mix-blend-mode: multiply">
							<g id="&lt;Group&gt;">
								<path id="&lt;Path&gt;" class="s1" d="m2446.9 660.8c0 5.3-4.3 9.7-9.6 9.7-5.3 0-9.6-4.4-9.6-9.7 0-5.3 4.3-9.6 9.6-9.6 5.3 0 9.6 4.3 9.6 9.6z"/>
							</g>
						</g>
						<g id="&lt;Group&gt;" style="mix-blend-mode: multiply">
							<g id="&lt;Group&gt;">
								<path id="&lt;Path&gt;" class="s1" d="m2490 660.8c0 5.3-4.3 9.7-9.6 9.7-5.3 0-9.6-4.4-9.6-9.7 0-5.3 4.3-9.6 9.6-9.6 5.3 0 9.6 4.3 9.6 9.6z"/>
							</g>
						</g>
					</g>
				</g>
			</g>
			<g id="&lt;Group&gt;">
				<g id="&lt;Group&gt;">
					<g id="&lt;Group&gt;">
						<path id="&lt;Path&gt;" class="s2" d="m961.3 1756.5h-108.8v-76.4h108.8z"/>
					</g>
					<g id="&lt;Group&gt;">
						<path id="&lt;Path&gt;" class="s2" d="m2118 1756.5h-108.8v-76.4h108.8z"/>
					</g>
				</g>
				<g id="&lt;Group&gt;">
					<path id="&lt;Path&gt;" class="s3" d="m576 1671v-1074.5c0-17.6 14.2-31.8 31.7-31.8h1755.1c17.6 0 31.8 14.2 31.8 31.8v1074.5c0 17.5-14.2 31.7-31.8 31.7h-1755.1c-17.5 0-31.7-14.2-31.7-31.7z"/>
				</g>
				<g id="&lt;Group&gt;">
					<path id="&lt;Path&gt;" class="s3" d="m522.1 1761.4v25.9c0 14.4 11.7 26.1 26.2 26.1h1883.3c14.4 0 26.1-11.7 26.1-26.1v-25.9c0-14.5-11.7-26.2-26.1-26.2h-1883.3c-14.5 0-26.2 11.7-26.2 26.2z"/>
				</g>
				<g id="&lt;Group&gt;">
					<path id="&lt;Path&gt;" class="s4" d="m593.5 1598.9v-988.9c0-15.3 12.4-27.7 27.7-27.7h1728.1c15.3 0 27.7 12.4 27.7 27.7v988.9c0 15.3-12.4 27.7-27.7 27.7h-1728.1c-15.3 0-27.7-12.4-27.7-27.7z"/>
				</g>
				<g id="&lt;Group&gt;">
					<path id="&lt;Path&gt;" class="s5" d="m2349.7 1599.3h-1728.9v-989.7h1728.9z"/>
				</g>
				<g id="&lt;Group&gt;">
					<path id="&lt;Path&gt;" class="s6" d="m674.3 1545.9v-882.9h1622v882.9z"/>
				</g>
			</g>
			<g id="&lt;Group&gt;">
				<g id="&lt;Group&gt;" style="mix-blend-mode: multiply">
					<g id="&lt;Group&gt;">
						<path id="&lt;Path&gt;" class="s7" d="m1538.9 877c0 55.6-45.1 100.7-100.7 100.7-55.6 0-100.7-45.1-100.7-100.7 0-55.7 45.1-100.7 100.7-100.7 55.6 0 100.7 45 100.7 100.7z"/>
					</g>
				</g>
				<g id="&lt;Group&gt;">
					<path id="&lt;Path&gt;" class="s5" d="m1523.8 866.9c0 55.6-45.1 100.7-100.7 100.7-55.6 0-100.7-45.1-100.7-100.7 0-55.6 45.1-100.7 100.7-100.7 55.6 0 100.7 45.1 100.7 100.7z"/>
				</g>
				<g id="&lt;Group&gt;">
					<g id="&lt;Group&gt;" style="mix-blend-mode: multiply">
						<g id="&lt;Group&gt;">
							<path id="&lt;Path&gt;" class="s7" d="m1780.3 838.3h-164c-11.6 0-20.9-9.4-20.9-20.9v-9.2c0-11.6 9.3-20.9 20.9-20.9h164c11.5 0 20.9 9.3 20.9 20.9v9.2c0 11.5-9.4 20.9-20.9 20.9z"/>
						</g>
					</g>
					<g id="&lt;Group&gt;">
						<path id="&lt;Path&gt;" class="s8" d="m1772.2 827.9h-164c-11.5 0-20.9-9.4-20.9-20.9v-9.2c0-11.5 9.4-20.9 20.9-20.9h164c11.6 0 20.9 9.4 20.9 20.9v9.2c0 11.5-9.3 20.9-20.9 20.9z"/>
					</g>
				</g>
				<g id="&lt;Group&gt;">
					<g id="&lt;Group&gt;" style="mix-blend-mode: multiply">
						<g id="&lt;Group&gt;">
							<path id="&lt;Path&gt;" class="s7" d="m1973.3 937.2h-357c-11.6 0-20.9-9.4-20.9-20.9v-9.2c0-11.5 9.3-20.9 20.9-20.9h357c11.5 0 20.9 9.4 20.9 20.9v9.2c0 11.5-9.4 20.9-20.9 20.9z"/>
						</g>
					</g>
					<g id="&lt;Group&gt;">
						<path id="&lt;Path&gt;" class="s8" d="m1965.2 926.8h-357c-11.5 0-20.9-9.4-20.9-20.9v-9.2c0-11.5 9.4-20.9 20.9-20.9h357c11.6 0 20.9 9.4 20.9 20.9v9.2c0 11.5-9.3 20.9-20.9 20.9z"/>
					</g>
				</g>
			</g>
			<g id="&lt;Group&gt;">
				<g id="&lt;Group&gt;" style="mix-blend-mode: multiply">
					<g id="&lt;Group&gt;">
						<path id="&lt;Path&gt;" class="s7" d="m1538.9 1134c0 55.6-45.1 100.7-100.7 100.7-55.6 0-100.7-45.1-100.7-100.7 0-55.6 45.1-100.7 100.7-100.7 55.6 0 100.7 45.1 100.7 100.7z"/>
					</g>
				</g>
				<g id="&lt;Group&gt;">
					<path id="&lt;Path&gt;" class="s9" d="m1523.8 1123.9c0 55.6-45.1 100.7-100.7 100.7-55.6 0-100.7-45.1-100.7-100.7 0-55.6 45.1-100.7 100.7-100.7 55.6 0 100.7 45.1 100.7 100.7z"/>
				</g>
				<g id="&lt;Group&gt;">
					<g id="&lt;Group&gt;" style="mix-blend-mode: multiply">
						<g id="&lt;Group&gt;">
							<path id="&lt;Path&gt;" class="s7" d="m1780.3 1095.3h-164c-11.6 0-20.9-9.4-20.9-20.9v-9.2c0-11.6 9.3-20.9 20.9-20.9h164c11.5 0 20.9 9.3 20.9 20.9v9.2c0 11.5-9.4 20.9-20.9 20.9z"/>
						</g>
					</g>
					<g id="&lt;Group&gt;">
						<path id="&lt;Path&gt;" class="s8" d="m1772.2 1084.9h-164c-11.5 0-20.9-9.4-20.9-20.9v-9.2c0-11.5 9.4-20.9 20.9-20.9h164c11.6 0 20.9 9.4 20.9 20.9v9.2c0 11.5-9.3 20.9-20.9 20.9z"/>
					</g>
				</g>
				<g id="&lt;Group&gt;">
					<g id="&lt;Group&gt;" style="mix-blend-mode: multiply">
						<g id="&lt;Group&gt;">
							<path id="&lt;Path&gt;" class="s7" d="m1973.3 1194.2h-357c-11.6 0-20.9-9.4-20.9-20.9v-9.2c0-11.5 9.3-20.9 20.9-20.9h357c11.5 0 20.9 9.4 20.9 20.9v9.2c0 11.5-9.4 20.9-20.9 20.9z"/>
						</g>
					</g>
					<g id="&lt;Group&gt;">
						<path id="&lt;Path&gt;" class="s8" d="m1965.2 1183.8h-357c-11.5 0-20.9-9.4-20.9-20.9v-9.2c0-11.5 9.4-20.9 20.9-20.9h357c11.6 0 20.9 9.4 20.9 20.9v9.2c0 11.5-9.3 20.9-20.9 20.9z"/>
					</g>
				</g>
			</g>
			<g id="&lt;Group&gt;">
				<g id="&lt;Group&gt;" style="mix-blend-mode: multiply">
					<g id="&lt;Group&gt;">
						<path id="&lt;Path&gt;" class="s7" d="m1538.9 1393.1c0 55.6-45.1 100.7-100.7 100.7-55.6 0-100.7-45.1-100.7-100.7 0-55.6 45.1-100.7 100.7-100.7 55.6 0 100.7 45.1 100.7 100.7z"/>
					</g>
				</g>
				<g id="&lt;Group&gt;">
					<path id="&lt;Path&gt;" class="s10" d="m1523.8 1383.1c0 55.6-45.1 100.7-100.7 100.7-55.6 0-100.7-45.1-100.7-100.7 0-55.6 45.1-100.7 100.7-100.7 55.6 0 100.7 45.1 100.7 100.7z"/>
				</g>
				<g id="&lt;Group&gt;">
					<g id="&lt;Group&gt;" style="mix-blend-mode: multiply">
						<g id="&lt;Group&gt;">
							<path id="&lt;Path&gt;" class="s7" d="m1780.3 1354.4h-164c-11.6 0-20.9-9.3-20.9-20.9v-9.1c0-11.6 9.3-21 20.9-21h164c11.5 0 20.9 9.4 20.9 21v9.1c0 11.6-9.4 20.9-20.9 20.9z"/>
						</g>
					</g>
					<g id="&lt;Group&gt;">
						<path id="&lt;Path&gt;" class="s8" d="m1772.2 1344h-164c-11.5 0-20.9-9.3-20.9-20.9v-9.1c0-11.6 9.4-20.9 20.9-20.9h164c11.6 0 20.9 9.3 20.9 20.9v9.1c0 11.6-9.3 20.9-20.9 20.9z"/>
					</g>
				</g>
				<g id="&lt;Group&gt;">
					<g id="&lt;Group&gt;" style="mix-blend-mode: multiply">
						<g id="&lt;Group&gt;">
							<path id="&lt;Path&gt;" class="s7" d="m1973.3 1453.3h-357c-11.6 0-20.9-9.3-20.9-20.9v-9.1c0-11.6 9.3-20.9 20.9-20.9h357c11.5 0 20.9 9.3 20.9 20.9v9.1c0 11.6-9.4 20.9-20.9 20.9z"/>
						</g>
					</g>
					<g id="&lt;Group&gt;">
						<path id="&lt;Path&gt;" class="s8" d="m1965.2 1443h-357c-11.5 0-20.9-9.4-20.9-20.9v-9.2c0-11.6 9.4-20.9 20.9-20.9h357c11.6 0 20.9 9.3 20.9 20.9v9.2c0 11.5-9.3 20.9-20.9 20.9z"/>
					</g>
				</g>
			</g>
			<g id="&lt;Group&gt;">
				<g id="&lt;Group&gt;" style="mix-blend-mode: multiply">
					<g id="&lt;Group&gt;">
						<path id="&lt;Path&gt;" class="s7" d="m1160.2 1519.9h-404.8c-14.6 0-26.3-11.8-26.3-26.3v-678.7c0-14.6 11.7-26.3 26.3-26.3h404.8c14.5 0 26.3 11.7 26.3 26.3v678.7c0 14.5-11.8 26.3-26.3 26.3z"/>
					</g>
				</g>
				<g id="&lt;Group&gt;">
					<path id="&lt;Path&gt;" class="s10" d="m1136.6 1488.4h-404.8c-14.6 0-26.4-11.8-26.4-26.3v-678.7c0-14.5 11.8-26.3 26.4-26.3h404.8c14.5 0 26.3 11.8 26.3 26.3v678.7c0 14.5-11.8 26.3-26.3 26.3z"/>
				</g>
				<g id="&lt;Group&gt;">
					<path id="&lt;Path&gt;" class="s11" d="m1136.2 757.1h-404c-14.8 0-26.8 12-26.8 26.7v60.4h457.5v-60.4c0-14.7-12-26.7-26.7-26.7z"/>
				</g>
				<g id="&lt;Group&gt;">
					<g id="&lt;Group&gt;" style="mix-blend-mode: multiply">
						<g id="&lt;Group&gt;">
							<path id="&lt;Path&gt;" class="s7" d="m858.5 1073.8h-106.7c-11.7 0-21.2-9.5-21.2-21.2v-106.7c0-11.6 9.5-21.1 21.2-21.1h106.7c11.6 0 21.1 9.5 21.1 21.1v106.7c0 11.7-9.5 21.2-21.1 21.2z"/>
						</g>
					</g>
					<g id="&lt;Group&gt;">
						<path id="&lt;Path&gt;" class="s11" d="m849.5 1064.3h-106.6c-11.7 0-21.2-9.4-21.2-21.1v-106.7c0-11.7 9.5-21.2 21.2-21.2h106.6c11.7 0 21.2 9.5 21.2 21.2v106.7c0 11.7-9.5 21.1-21.2 21.1z"/>
					</g>
					<g id="&lt;Group&gt;">
						<path id="&lt;Path&gt;" class="s6" d="m1048.2 955.2h-125.7c-3.7 0-6.7-3-6.7-6.7v-20.7c0-3.7 3-6.7 6.7-6.7h125.7c3.7 0 6.6 3 6.6 6.7v20.7c0 3.7-2.9 6.7-6.6 6.7z"/>
					</g>
					<g id="&lt;Group&gt;">
						<path id="&lt;Path&gt;" class="s6" d="m1123.2 1017.6h-200.7c-3.7 0-6.7-3-6.7-6.7v-20.8c0-3.7 3-6.6 6.7-6.6h200.7c3.7 0 6.7 2.9 6.7 6.6v20.8c0 3.7-3 6.7-6.7 6.7z"/>
					</g>
					<g id="&lt;Group&gt;">
						<path id="&lt;Path&gt;" class="s6" d="m1123.2 1079.9h-200.7c-3.7 0-6.7-3-6.7-6.7v-20.7c0-3.7 3-6.7 6.7-6.7h200.7c3.7 0 6.7 3 6.7 6.7v20.7c0 3.7-3 6.7-6.7 6.7z"/>
					</g>
				</g>
				<g id="&lt;Group&gt;">
					<g id="&lt;Group&gt;" style="mix-blend-mode: multiply">
						<g id="&lt;Group&gt;">
							<path id="&lt;Path&gt;" class="s7" d="m858.5 1337.2h-106.7c-11.7 0-21.2-9.5-21.2-21.1v-106.7c0-11.7 9.5-21.2 21.2-21.2h106.7c11.6 0 21.1 9.5 21.1 21.2v106.7c0 11.6-9.5 21.1-21.1 21.1z"/>
						</g>
					</g>
					<g id="&lt;Group&gt;">
						<path id="&lt;Path&gt;" class="s11" d="m849.5 1327.8h-106.6c-11.7 0-21.2-9.5-21.2-21.2v-106.7c0-11.6 9.5-21.1 21.2-21.1h106.6c11.7 0 21.2 9.5 21.2 21.1v106.7c0 11.7-9.5 21.2-21.2 21.2z"/>
					</g>
					<g id="&lt;Group&gt;">
						<path id="&lt;Path&gt;" class="s6" d="m1048.2 1218.7h-125.7c-3.7 0-6.7-3-6.7-6.7v-20.8c0-3.7 3-6.6 6.7-6.6h125.7c3.7 0 6.6 2.9 6.6 6.6v20.8c0 3.7-2.9 6.7-6.6 6.7z"/>
					</g>
					<g id="&lt;Group&gt;">
						<path id="&lt;Path&gt;" class="s6" d="m1123.2 1281h-200.7c-3.7 0-6.7-3-6.7-6.7v-20.7c0-3.7 3-6.7 6.7-6.7h200.7c3.7 0 6.7 3 6.7 6.7v20.7c0 3.7-3 6.7-6.7 6.7z"/>
					</g>
					<g id="&lt;Group&gt;">
						<path id="&lt;Path&gt;" class="s6" d="m1123.2 1343.3h-200.7c-3.7 0-6.7-2.9-6.7-6.6v-20.8c0-3.7 3-6.7 6.7-6.7h200.7c3.7 0 6.7 3 6.7 6.7v20.8c0 3.7-3 6.6-6.7 6.6z"/>
					</g>
				</g>
			</g>
			<g id="&lt;Group&gt;">
				<g id="&lt;Group&gt;">
					<path id="&lt;Path&gt;" class="s11" d="m2296.3 726h-1622v-63h1622z"/>
				</g>
				<g id="&lt;Group&gt;">
					<path id="&lt;Path&gt;" class="s6" d="m2178.7 706.2h-35.1v-7.8h35.1z"/>
				</g>
				<g id="&lt;Group&gt;">
					<path id="&lt;Path&gt;" class="s6" d="m2221.8 710l-24.8-24.8 5.5-5.5 24.8 24.8z"/>
				</g>
				<g id="&lt;Group&gt;">
					<path id="&lt;Path&gt;" class="s6" d="m2197 704.5l24.8-24.8 5.5 5.5-24.8 24.8z"/>
				</g>
				<g id="&lt;Group&gt;">
					<path id="&lt;Compound Path&gt;" fill-rule="evenodd" class="s6" d="m2273.8 678v32h-32v-32zm-6.2 6.2h-19.6v19.6h19.6z"/>
				</g>
				<g id="&lt;Group&gt;">
					<path id="&lt;Path&gt;" class="s6" d="m797 695c0 5.6-4.5 10-10 10-5.5 0-10-4.4-10-10 0-5.5 4.5-10 10-10 5.5 0 10 4.5 10 10z"/>
				</g>
				<g id="&lt;Group&gt;">
					<path id="&lt;Path&gt;" class="s6" d="m755.5 695c0 5.6-4.5 10-10 10-5.5 0-10-4.4-10-10 0-5.5 4.5-10 10-10 5.5 0 10 4.5 10 10z"/>
				</g>
				<g id="&lt;Group&gt;">
					<path id="&lt;Path&gt;" class="s6" d="m713.9 695c0 5.6-4.4 10-10 10-5.5 0-10-4.4-10-10 0-5.5 4.5-10 10-10 5.6 0 10 4.5 10 10z"/>
				</g>
			</g>
			<g id="&lt;Group&gt;">
				<g id="&lt;Group&gt;">
					<g id="&lt;Group&gt;">
						<path id="&lt;Path&gt;" class="s12" d="m2547.1 1786.6h21v-167.3h-21z"/>
					</g>
					<g id="&lt;Group&gt;">
						<path id="&lt;Path&gt;" class="s12" d="m2499 1786.6h117.2v-18.3h-117.2z"/>
					</g>
					<g id="&lt;Group&gt;">
						<path id="&lt;Path&gt;" class="s13" d="m2437 1589.3h207.3v29.7h-207.3c-4.8 0-8.8-4-8.8-8.8v-12.2c0-4.8 4-8.7 8.8-8.7z"/>
					</g>
					<g id="&lt;Group&gt;">
						<path id="&lt;Path&gt;" class="s12" d="m2498.1 1644.7h118.9v-25.4h-118.9z"/>
					</g>
					<g id="&lt;Group&gt;">
						<g id="&lt;Group&gt;">
							<path id="&lt;Path&gt;" class="s11" d="m2593.7 1793.6c0 11 8.9 19.9 19.9 19.9 11 0 19.8-8.9 19.8-19.9 0-10.9-8.8-19.8-19.8-19.8-11 0-19.9 8.9-19.9 19.8z"/>
						</g>
						<g id="&lt;Group&gt;">
							<path id="&lt;Path&gt;" class="s12" d="m2603.5 1793.6c0 5.6 4.5 10.1 10.1 10.1 5.5 0 10.1-4.5 10.1-10.1 0-5.5-4.6-10-10.1-10-5.6 0-10.1 4.5-10.1 10z"/>
						</g>
						<g id="&lt;Group&gt;">
							<path id="&lt;Path&gt;" class="s11" d="m2599.8 1762.1h27.6c4.3 0 7.8 3.5 7.8 7.8v15h-43.2v-15c0-4.3 3.5-7.8 7.8-7.8z"/>
						</g>
					</g>
					<g id="&lt;Group&gt;">
						<g id="&lt;Group&gt;">
							<path id="&lt;Path&gt;" class="s11" d="m2536.8 1793.6c0 11 8.8 19.9 19.8 19.9 11 0 19.9-8.9 19.9-19.9 0-10.9-8.9-19.8-19.9-19.8-11 0-19.8 8.9-19.8 19.8z"/>
						</g>
						<g id="&lt;Group&gt;">
							<path id="&lt;Path&gt;" class="s12" d="m2546.6 1793.6c0 5.6 4.5 10.1 10 10.1 5.6 0 10.1-4.5 10.1-10.1 0-5.5-4.5-10-10.1-10-5.5 0-10 4.5-10 10z"/>
						</g>
						<g id="&lt;Group&gt;">
							<path id="&lt;Path&gt;" class="s11" d="m2542.8 1762.1h27.7c4.2 0 7.7 3.5 7.7 7.8v15h-43.2v-15c0-4.3 3.5-7.8 7.8-7.8z"/>
						</g>
					</g>
					<g id="&lt;Group&gt;">
						<g id="&lt;Group&gt;">
							<path id="&lt;Path&gt;" class="s11" d="m2479.8 1793.6c0 11 8.9 19.9 19.8 19.9 11 0 19.9-8.9 19.9-19.9 0-10.9-8.9-19.8-19.9-19.8-10.9 0-19.8 8.9-19.8 19.8z"/>
						</g>
						<g id="&lt;Group&gt;">
							<path id="&lt;Path&gt;" class="s12" d="m2489.6 1793.6c0 5.6 4.5 10.1 10 10.1 5.6 0 10.1-4.5 10.1-10.1 0-5.5-4.5-10-10.1-10-5.5 0-10 4.5-10 10z"/>
						</g>
						<g id="&lt;Group&gt;">
							<path id="&lt;Path&gt;" class="s11" d="m2485.8 1762.1h27.7c4.2 0 7.7 3.5 7.7 7.8v15h-43.1v-15c0-4.3 3.4-7.8 7.7-7.8z"/>
						</g>
					</g>
					<g id="&lt;Group&gt;">
						<path id="&lt;Path&gt;" class="s14" d="m2652.6 1313.6h-11.8c-5.7 0-10.3 4.6-10.3 10.3v294.9h32.5v-294.9c0-5.7-4.7-10.3-10.4-10.3z"/>
					</g>
				</g>
				<g id="&lt;Group&gt;">
					<g id="&lt;Group&gt;">
						<path id="&lt;Path&gt;" class="s15" d="m2498 1482.1c0 0-176.5 19.8-179.5 37.3-3.1 17.5 42.6 151.4 42.6 151.4 0 0 64.6-103.5 65.4-107.3 0.8-3.8 54-25.1 56.3-25.9 1.3-0.4 6.5-19.9 10.4-35.7 2.7-10.8 4.8-19.8 4.8-19.8z"/>
					</g>
					<g id="&lt;Group&gt;">
						<g id="&lt;Group&gt;">
							<path id="&lt;Path&gt;" class="s16" d="m2388.9 1762.2l-3.2 22.9c5.2 12.5 3.5 28.4 3.5 28.4l-82.6-0.2c9.5-19.1 42.5-18.9 46.9-28.1 4.3-9.2 5.6-36.1 5.6-36.1z"/>
						</g>
						<g id="&lt;Group&gt;">
							<path id="&lt;Path&gt;" class="s17" d="m2368.6 1786.8c0.1-3.2-2.7-14.9-11.3-18.2-0.8 6.5-2.1 12.9-3.8 16.6-4.4 9.2-37.4 9-46.9 28.1l82.6 0.2c0 0 1.7-15.9-3.5-28.4 0 0-16.6 7.6-17.1 1.7z"/>
						</g>
						<g id="&lt;Group&gt;">
							<path id="&lt;Path&gt;" class="s18" d="m2309 1809.7q-1.4 1.7-2.4 3.6l82.6 0.2c0 0 0.1-1.4 0.2-3.7z"/>
						</g>
						<g id="&lt;Group&gt;">
							<path id="&lt;Path&gt;" class="s18" d="m2360.4 1789.5c-0.2 0-0.4-0.2-0.5-0.4 0 0-1.5-3.8-4.2-4.9q-1.7-0.7-3.6 0.2c-0.3 0.1-0.6 0-0.8-0.3-0.1-0.3 0-0.6 0.3-0.7q2.3-1 4.5-0.2c3.2 1.3 4.8 5.4 4.8 5.5 0.1 0.3 0 0.6-0.3 0.7q-0.1 0.1-0.2 0.1z"/>
						</g>
						<g id="&lt;Group&gt;">
							<path id="&lt;Path&gt;" class="s18" d="m2351.8 1795.9c-0.2 0-0.4-0.1-0.5-0.3 0-0.1-1.5-3.8-4.3-4.9q-1.7-0.7-3.6 0.1c-0.3 0.2-0.6 0-0.7-0.2-0.1-0.3 0-0.6 0.3-0.7q2.3-1.1 4.4-0.2c3.2 1.3 4.8 5.3 4.9 5.5 0.1 0.3 0 0.6-0.3 0.7q-0.1 0-0.2 0z"/>
						</g>
						<g id="&lt;Group&gt;">
							<path id="&lt;Path&gt;" class="s18" d="m2337.4 1800.5c-0.2 0-0.4-0.2-0.5-0.4 0 0-1.5-3.8-4.3-4.9q-1.7-0.7-3.6 0.2c-0.2 0.1-0.6 0-0.7-0.3-0.1-0.3 0-0.6 0.3-0.7q2.3-1.1 4.5-0.2c3.1 1.3 4.7 5.4 4.8 5.5 0.1 0.3 0 0.6-0.3 0.7q-0.1 0.1-0.2 0.1z"/>
						</g>
					</g>
					<g id="&lt;Group&gt;">
						<path id="&lt;Path&gt;" class="s19" d="m2416.1 1449.9c-30.2 21.1-74.4 33.9-74.4 33.9l17.9 23.7c33.7-4 76.2-18.8 76.2-18.8z"/>
					</g>
					<g id="&lt;Group&gt;">
						<g id="&lt;Group&gt;">
							<g id="&lt;Group&gt;">
								<path id="&lt;Path&gt;" class="s6" d="m2424.6 1442.6c-3.4-3.9-13.3-3.8-16.7 4.5-2.5 6 7 26.5 16.2 35.7 9.3 9.3 17.8 12.3 24.4 9.6 6.6-2.6 7.2-9.8 7.2-9.8z"/>
							</g>
						</g>
						<g id="&lt;Group&gt;">
							<g id="&lt;Group&gt;">
								<path id="&lt;Path&gt;" class="s6" d="m2513.4 1341.8c-22.2-9.7-38.2 35.9-58.2 63.3-15.7 21.5-31.7 34.9-37.9 39.7-1.5 1.2-2 3.3-1.2 5.1 4.2 9.1 17.5 35.3 31.3 35.4 55.4-21.6 115.1-103 66-143.5z"/>
							</g>
						</g>
					</g>
					<g id="&lt;Group&gt;">
						<path id="&lt;Path&gt;" class="s20" d="m2358.2 1535.7c0.8-2.2 138.3-36.9 138.3-36.9 0.8-3.7 1.1-8 1-12.7l128.5 49.9c-16.3 60.8-79.5 51.2-202.5 52.6-6.9 5.3-24.6 179.6-24.6 179.6l-57-6.1c0 0 15.6-224.1 16.3-226.4z"/>
					</g>
					<g id="&lt;Group&gt;" style="mix-blend-mode: multiply">
						<g id="&lt;Group&gt;">
							<path id="&lt;Path&gt;" class="s21" d="m2353.5 1636.3c0.2 0 0.5-0.2 0.5-0.5 0.1-0.8 8.8-83.4 10.7-94.3 1.3-7.8 85-24.9 141-34.5 0.3-0.1 0.5-0.3 0.4-0.6 0-0.3-0.3-0.5-0.6-0.5-14.3 2.5-140 24.4-141.9 35.5-1.9 10.9-10.6 93.5-10.7 94.3 0 0.3 0.2 0.6 0.5 0.6q0 0 0.1 0z"/>
						</g>
					</g>
					<g id="&lt;Group&gt;">
						<g id="&lt;Group&gt;">
							<path id="&lt;Path&gt;" class="s22" d="m2271.5 1414.8h128.8l22.4 95h-128.9z"/>
						</g>
						<g id="&lt;Group&gt;">
							<path id="&lt;Path&gt;" class="s23" d="m2265.9 1414.8h128.8l22.4 95h-128.9z"/>
						</g>
						<g id="&lt;Group&gt;">
							<path id="&lt;Path&gt;" class="s22" d="m2338.2 1469.5h14.9v-5.9c0-4.7-3.7-8.4-8.4-8.4h-14.9v5.9c0 4.6 3.8 8.4 8.4 8.4z"/>
						</g>
						<g id="&lt;Group&gt;">
							<path id="&lt;Path&gt;" class="s23" d="m2467.2 1518.3h-178.4v-8.5h178.4z"/>
						</g>
					</g>
					<g id="&lt;Group&gt;">
						<path id="&lt;Path&gt;" class="s24" d="m2482.8 1391.6c-1.5-38 3-45.7 8-54.4 4.9-8.8 35.7-14.6 35.7-14.6 40.5 18.8 111.4 122.4 102.6 196.9-0.8 6.8-2 13-3.7 18.5q-0.5 1.9-1.2 3.8c-57.4-12-107.1-38.6-126.8-50.2 1.3-25.3-13.2-65.5-14.6-100z"/>
					</g>
					<g id="&lt;Group&gt;">
						<path id="&lt;Path&gt;" class="s16" d="m2503.7 1465.8c0 0-62.4 15.2-67.3 12.1-5-3-27.4-8.1-31.6-8-4.2 0.2-22.4 7.5-22.4 7.5 0.7 2.8 9.9 1.1 9.9 1.1 0 0-7.6 6.3-4.4 7.6 0 3.1 2.7 3.4 2.7 3.4 1.5 2.3 14 0 21.1 3.3 7 3.2 19 11.6 23.9 10 5-1.5 11.6-3.8 11.6-3.8l73.6 11.6z"/>
					</g>
					<g id="&lt;Group&gt;">
						<path id="&lt;Path&gt;" class="s6" d="m2518.5 1463.1c-2.4-4.6-11.4-5.9-16.1-1.5-4.8 4.3 0 29.6 7 40.7 7 11 14.7 15.8 21.7 14.6 7-1.1 9.1-8 9.1-8z"/>
					</g>
					<g id="&lt;Group&gt;">
						<path id="&lt;Path&gt;" class="s17" d="m2511.7 1297.1c0 0-6.9-49.2-29.4-47.8-15.7-5.7-34.5 12.3-34.5 12.3-14.3 8.6-11.1 24-0.9 25.1 10.3 1.1 39.4 22.8 39.4 22.8l22.5-7.1z"/>
					</g>
					<g id="&lt;Group&gt;">
						<path id="&lt;Path&gt;" class="s16" d="m2448.6 1272.5c-2.7 6.7-3.3 14.3-2.3 17.9 0.9 3.6 8.1 12.2 8.7 13.3 0.6 1.2-4.4 14.5-4.4 14.5 0 0 3.7 0.8 8.8-0.8 3.6 6.9 13.3 19.4 17.1 19.8 3.8 0.4 12-5.9 12-5.9 3.8 1 4.2 4.8 4.2 4.8 0 0-7.3 6-1 7.6 6.3 1.5 34.8-16.6 34.8-21.1-7.2-10.7-14.8-25.5-14.8-25.5-3.4 1.7-9.7-2.7-9.7-2.7 0 0-3-0.6-3.4-1.1-3.5-1.7-5.2 0.9-6.9 2.6-1.7 1.7-8.3-3.2-7.4-7.2 1-4 2.3-8.4 1.7-10.3-0.6-1.9-9.7-16.5-13.3-13.5-3.6 3.1-18.6 11.1-24.1 7.6z"/>
					</g>
					<g id="&lt;Group&gt;">
						<path id="&lt;Path&gt;" class="s25" d="m2507.3 1299.8c0 4-3.3 7.3-7.3 7.3-4 0-7.3-3.3-7.3-7.3 0-4.1 3.3-7.4 7.3-7.4 4 0 7.3 3.3 7.3 7.4z"/>
					</g>
					<g id="&lt;Group&gt;" style="mix-blend-mode: multiply">
						<g id="&lt;Group&gt;">
							<path id="&lt;Path&gt;" class="s26" d="m2498.4 1303.6c-0.2 0-0.3-0.1-0.4-0.3-0.1-0.3 0-0.5 0.2-0.6q1-0.5 1.1-1.2c0-0.5-0.3-1-0.8-1.3-0.5-0.4-1.1-0.4-1.7-0.1-0.2 0.1-0.3 0.1-0.5 0-0.1-0.1-0.2-0.3-0.2-0.5 0.1-1.7 1.2-3.1 3.1-3.7 1.8-0.5 3.8 0 4.8 1.5 0.2 0.2 0.1 0.5-0.1 0.6-0.2 0.2-0.5 0.1-0.6-0.1-1-1.3-2.7-1.4-3.9-1.1-0.9 0.3-1.9 1-2.2 2.2 0.6-0.1 1.3 0 1.8 0.4 0.8 0.5 1.3 1.4 1.2 2.2 0 0.5-0.3 1.4-1.6 1.9q-0.1 0.1-0.2 0.1z"/>
						</g>
					</g>
					<g id="&lt;Group&gt;" style="mix-blend-mode: multiply">
						<g id="&lt;Group&gt;">
							<path id="&lt;Path&gt;" class="s26" d="m2467.6 1304.6q0 0 0.1-0.1c0.6-0.2 1.1-0.8 1.4-1.6 0.2-1 0.1-2-0.5-2.7-0.1-0.2-0.3-0.2-0.5-0.1-0.1 0.1-0.2 0.4-0.1 0.5 0.5 0.6 0.6 1.3 0.4 2.1-0.2 0.6-0.5 1-1 1.2-0.1 0-0.2 0.2-0.2 0.4 0.1 0.2 0.2 0.3 0.4 0.3z"/>
						</g>
					</g>
					<g id="&lt;Group&gt;">
						<g id="&lt;Group&gt;">
							<path id="&lt;Path&gt;" class="s17" d="m2456 1294.7q0.1 0 0.1 0c0.1 0 7.8-1.4 12.7-1.5 0.2 0 0.4-0.2 0.3-0.4 0-0.2-0.1-0.3-0.3-0.3-18.1-4.3-12.7 1.5-12.8 1.5-0.2 0-0.4 0.2-0.3 0.4 0 0.2 0.2 0.3 0.3 0.3z"/>
						</g>
					</g>
					<g id="&lt;Group&gt;" style="mix-blend-mode: multiply">
						<g id="&lt;Group&gt;">
							<path id="&lt;Path&gt;" class="s26" d="m2389 1485.9c0 0 9.5-5.1 10.9-5.8 1.3-0.7 6.7-0.5 9 0 0.2 0 0.4-0.1 0.5-0.3 0-0.2-0.1-0.4-0.3-0.4-2-0.5-7.9-0.8-9.5 0-1.4 0.8-10.9 5.8-10.9 5.8z"/>
						</g>
					</g>
					<g id="&lt;Group&gt;" style="mix-blend-mode: multiply">
						<g id="&lt;Group&gt;">
							<path id="&lt;Path&gt;" class="s26" d="m2391.6 1488.8q0.1 0 0.1 0c1.6-0.5 12.5-2.8 16.7-1.5 0.2 0.1 0.4 0 0.5-0.2 0-0.2-0.1-0.4-0.3-0.5-4.5-1.4-15.5 1-17.1 1.5-0.2 0.1-0.3 0.3-0.2 0.5 0 0.2 0.1 0.2 0.3 0.2z"/>
						</g>
					</g>
					<g id="&lt;Group&gt;">
						<path id="&lt;Path&gt;" class="s17" d="m2466.3 1299c1.1 1.7 1.3 3.5 0.5 4-0.8 0.5-2.3-0.4-3.4-2-1.2-1.7-1.4-3.5-0.6-4 0.8-0.5 2.3 0.4 3.5 2z"/>
					</g>
					<path id="&lt;Mesh&gt;" class="s27" d="m2459.4 1317.4c-3.7 1.2-6.6 1.1-8 0.9q0-0.2 0.1-0.9c1.3 0.2 3.6-1.1 7.1-2.1q0.4 1 0.8 2.1zm-0.8-2.1c-3.5 1-5.8 2.3-7.1 2.1 0.6-3 4-12.4 3.5-13.6q0.1 0.3 0.3 1.1c0.5 1.7 1.6 5.4 3.3 10.4zm-7.2 3c-0.5-0.1-0.8-0.1-0.8-0.1q0.1 0 0.3-0.6c0 0 0.1-0.2 0.6-0.2q-0.1 0.7-0.1 0.9zm0.1-0.9c-0.5 0-0.6 0.2-0.6 0.2 0.9-2.5 4.6-12.9 4.1-13.9q0 0 0 0.1c0.5 1.2-2.9 10.6-3.5 13.6z"/>
					<g id="&lt;Group&gt;">
						<path id="&lt;Path&gt;" class="s6" d="m2540.7 1339.5c-2.9-1.6-6.3-2-9.5-1-19.5 6.2-30.5 20.5-21 50.8 10.2 32.7 26.6 66.9 3 74.6-4.8 8.6 7.3 31.3 12.9 41.4 1.8 3.3 5.1 5.5 8.8 6 30 4 57.1-7.1 58.2-45.9 1.1-39.5-21-107.4-52.4-125.9z"/>
					</g>
					<g id="&lt;Group&gt;" style="mix-blend-mode: multiply">
						<path id="&lt;Path&gt;" class="s21" d="m2535.4 1457.2q0.2-0.2 0.1-0.4c0-0.2-0.2-0.4-0.5-0.3-1.2 0.2-3.8-2-5.5-3.5-1.8-1.5-2.5-2.1-3.1-1.9q-0.3 0.1-0.4 0.5c-0.2 1.5 2 4.3 2.4 4.8 0.2 0.2 0.5 0.3 0.6 0.1 0.2-0.1 0.3-0.4 0.1-0.6-0.8-1-2-2.9-2.2-3.8 0.5 0.3 1.3 1 2 1.6 2.2 1.8 4.7 4 6.3 3.6q0.1 0 0.2-0.1z"/>
					</g>
					<g id="&lt;Group&gt;" style="mix-blend-mode: multiply">
						<path id="&lt;Path&gt;" class="s21" d="m2411.7 1573.6c-0.2 0.1-0.3 0.3-0.3 0.5-0.1 0.4 0.2 0.7 0.6 0.7 1.9 0.2 4.7 4.7 6.6 7.6 1.9 3 2.7 4.2 3.6 4.2 0.3-0.1 0.6-0.3 0.8-0.6 1-2-1-7.2-1.4-8.2-0.1-0.3-0.5-0.5-0.8-0.3-0.4 0.1-0.5 0.5-0.4 0.8 0.8 1.9 1.7 5.1 1.5 6.6-0.5-0.6-1.4-2-2.2-3.2-2.4-3.7-5-7.9-7.6-8.2q-0.2 0-0.4 0.1z"/>
					</g>
					<g id="&lt;Group&gt;" style="mix-blend-mode: multiply">
						<g id="&lt;Group&gt;">
							<path id="&lt;Path&gt;" class="s21" d="m2383.3 1751.6c0.3 0 0.5-0.2 0.6-0.5 3.8-44.1 16.8-175.7 20.2-179.6 1.9-2.3 3.9-3.3 5.1-4 1.1-0.6 1.8-1 1.9-1.7 0.1-0.4 0-0.8-0.2-1.1 2.4-0.6 14.7-0.5 28.9-0.4 18.7 0.1 44.3 0.3 70-0.6 56.2-2.1 71-14.2 78.1-25.8 0.1-0.2 0-0.6-0.2-0.7-0.3-0.2-0.6-0.1-0.8 0.2-6.9 11.3-21.5 23.1-77.1 25.2-25.8 0.9-51.3 0.7-70 0.6-24.4-0.2-29.6-0.1-30.2 1-0.1 0.3-0.1 0.6 0.1 0.8 0.4 0.4 0.4 0.6 0.4 0.6-0.1 0.2-0.8 0.6-1.4 0.9-1.3 0.7-3.4 1.8-5.4 4.3-4.3 5-20 173.8-20.5 180.3-0.1 0.3 0.2 0.5 0.5 0.5q0 0 0 0z"/>
						</g>
					</g>
					<g id="&lt;Group&gt;" style="mix-blend-mode: multiply">
						<g id="&lt;Group&gt;">
							<path id="&lt;Path&gt;" class="s21" d="m2395.9 1759.6c0.2 0 0.5-0.2 0.5-0.4 0-0.3-0.2-0.6-0.5-0.7l-47.1-5.7c-0.3 0-0.6 0.2-0.6 0.5-0.1 0.3 0.1 0.6 0.4 0.6l47.2 5.7q0 0 0.1 0z"/>
						</g>
					</g>
					<g id="&lt;Group&gt;">
						<path id="&lt;Path&gt;" class="s17" d="m2460.1 1318.7c10.2-4.8 14.6-3.9 20.9-8.6 6.4-4.7 1.7-18.4 3.3-21.4 1.6-3 7.4 7.2 7.4 7.2-1.1 5.3 2.6 8.9 4.1 12.4 1.6 3.5 3.5 10.4 2.6 11.9-0.9 1.5-5 9.4-10.3 13-5.2 3.6-11 8.9-15.8 5.1-4.8-3.7-12.2-19.6-12.2-19.6z"/>
					</g>
					<g id="&lt;Group&gt;">
						<path id="&lt;Path&gt;" class="s16" d="m2463.1 1323c6-3.3 15.8-5.7 16.9-3.6 1.2 2.1-13.6 15.4-16.9 3.6z"/>
					</g>
					<g id="&lt;Group&gt;">
						<path id="&lt;Path&gt;" class="s17" d="m2465.3 1324.5q-0.5 0-1 0c-0.3 0-0.6-0.3-0.6-0.6 0-0.4 0.3-0.6 0.7-0.6 7.2 0.4 12.2-4.1 12.2-4.2 0.3-0.2 0.6-0.2 0.9 0.1 0.2 0.2 0.2 0.6-0.1 0.8-0.2 0.2-4.9 4.5-12.1 4.5z"/>
					</g>
				</g>
				<g id="&lt;Group&gt;">
					<path id="&lt;Path&gt;" class="s14" d="m2518.3 1531.9h120.3c3.5 0 6.4-2.8 6.4-6.4v-8.8c0-3.6-2.9-6.4-6.4-6.4h-120.3c-3.6 0-6.4 2.8-6.4 6.4v8.8c0 3.6 2.8 6.4 6.4 6.4z"/>
				</g>
			</g>
			<g id="&lt;Group&gt;">
				<g id="&lt;Group&gt;">
					<g id="&lt;Group&gt;">
						<path id="&lt;Path&gt;" class="s16" d="m2082.8 1763.7l-3.5 21.8c4.7 12 2.8 27.2 2.8 27.2l-89.4 0.8c9.5-18.2 51.4-19.8 55.8-28.5 4.3-8.7 6.1-34.4 6.1-34.4z"/>
					</g>
					<g id="&lt;Group&gt;">
						<path id="&lt;Path&gt;" class="s17" d="m2062.9 1786.8c0.1-3.1-2.3-14.3-10.4-17.6-1 6.1-2.3 12.3-4 15.8-4.4 8.7-46.3 10.3-55.8 28.5l89.4-0.8c0 0 1.9-15.2-2.8-27.2 0 0-16.1 7-16.4 1.3z"/>
					</g>
					<g id="&lt;Group&gt;">
						<path id="&lt;Path&gt;" class="s18" d="m1995.1 1810q-1.4 1.7-2.4 3.5l89.4-0.8c0 0 0.1-1.3 0.3-3.5z"/>
					</g>
					<g id="&lt;Group&gt;">
						<path id="&lt;Path&gt;" class="s18" d="m2055 1789.2c-0.2 0-0.4-0.1-0.4-0.3 0-0.1-1.4-3.7-4-4.8q-1.6-0.7-3.5 0.1c-0.2 0.1-0.5 0-0.7-0.3-0.1-0.3 0.1-0.6 0.3-0.7q2.3-0.9 4.3-0.1c3 1.3 4.5 5.2 4.5 5.4 0.1 0.3 0 0.6-0.3 0.7q-0.1 0-0.2 0z"/>
					</g>
					<g id="&lt;Group&gt;">
						<path id="&lt;Path&gt;" class="s18" d="m2046.6 1795.2c-0.2 0-0.4-0.1-0.4-0.3 0-0.1-1.4-3.7-4-4.8q-1.6-0.7-3.5 0.1c-0.2 0.1-0.5 0-0.7-0.3-0.1-0.3 0.1-0.6 0.3-0.7q2.3-0.9 4.3-0.1c3 1.3 4.5 5.2 4.5 5.4 0.1 0.3 0 0.6-0.3 0.7q-0.1 0-0.2 0z"/>
					</g>
					<g id="&lt;Group&gt;">
						<path id="&lt;Path&gt;" class="s18" d="m2032.8 1799.3c-0.2-0.1-0.4-0.2-0.5-0.4 0 0-1.3-3.7-3.9-4.8q-1.7-0.7-3.5 0.1c-0.3 0.1-0.6 0-0.7-0.2-0.1-0.3 0-0.6 0.3-0.7q2.2-1 4.3-0.1c3 1.3 4.4 5.2 4.5 5.4 0.1 0.2 0 0.5-0.3 0.6q-0.1 0.1-0.2 0.1z"/>
					</g>
				</g>
				<g id="&lt;Group&gt;">
					<g id="&lt;Group&gt;">
						<path id="&lt;Path&gt;" class="s16" d="m1995.7 1763.7l-3.5 21.8c4.6 12 2.7 27.2 2.7 27.2l-89.3 0.8c9.5-18.2 51.4-19.8 55.7-28.5 4.4-8.7 6.1-34.4 6.1-34.4z"/>
					</g>
					<g id="&lt;Group&gt;">
						<path id="&lt;Path&gt;" class="s17" d="m1975.8 1786.8c0.1-3.1-2.3-14.3-10.5-17.6-0.9 6.1-2.2 12.3-4 15.8-4.3 8.7-46.2 10.3-55.7 28.5l89.3-0.8c0 0 1.9-15.2-2.7-27.2 0 0-16.1 7-16.4 1.3z"/>
					</g>
					<g id="&lt;Group&gt;">
						<path id="&lt;Path&gt;" class="s18" d="m1907.9 1810q-1.4 1.7-2.3 3.5l89.3-0.8c0 0 0.2-1.3 0.3-3.5z"/>
					</g>
					<g id="&lt;Group&gt;">
						<path id="&lt;Path&gt;" class="s18" d="m1967.9 1789.2c-0.2 0-0.4-0.1-0.5-0.3 0-0.1-1.3-3.7-4-4.8q-1.6-0.7-3.4 0.1c-0.3 0.1-0.6 0-0.7-0.3-0.1-0.3 0-0.6 0.3-0.7q2.2-0.9 4.3-0.1c3 1.3 4.4 5.2 4.5 5.4 0.1 0.3 0 0.6-0.3 0.7q-0.1 0-0.2 0z"/>
					</g>
					<g id="&lt;Group&gt;">
						<path id="&lt;Path&gt;" class="s18" d="m1959.5 1795.2c-0.2 0-0.4-0.1-0.5-0.3 0-0.1-1.3-3.7-4-4.8q-1.6-0.7-3.4 0.1c-0.3 0.1-0.6 0-0.7-0.3-0.1-0.3 0-0.6 0.3-0.7q2.2-0.9 4.3-0.1c3 1.3 4.4 5.2 4.5 5.4 0.1 0.3 0 0.6-0.3 0.7q-0.1 0-0.2 0z"/>
					</g>
					<g id="&lt;Group&gt;">
						<path id="&lt;Path&gt;" class="s18" d="m1945.7 1799.3c-0.2-0.1-0.4-0.2-0.5-0.4 0 0-1.4-3.7-4-4.8q-1.6-0.7-3.5 0.1c-0.2 0.1-0.5 0-0.6-0.2-0.1-0.3 0-0.6 0.2-0.7q2.3-1 4.3-0.1c3 1.3 4.5 5.2 4.6 5.4 0.1 0.2-0.1 0.5-0.3 0.6q-0.1 0.1-0.2 0.1z"/>
					</g>
				</g>
				<g id="&lt;Group&gt;">
					<g id="&lt;Group&gt;">
						<path id="&lt;Path&gt;" class="s11" d="m2149.2 1515.3c0 0-85.7-1.8-99.7 12.2-14 14-7 251-7 251h56l14.9-181h122.4l4.3-92.7z"/>
					</g>
					<g id="&lt;Group&gt;">
						<path id="&lt;Path&gt;" class="s11" d="m2062.1 1515.3c0 0-85.7-1.8-99.7 12.2-14 14-7 251-7 251h52.6l18.2-181h122.4l4.4-92.7z"/>
					</g>
					<g id="&lt;Group&gt;">
						<g id="&lt;Group&gt;">
							<g id="&lt;Group&gt;">
								<path id="&lt;Path&gt;" class="s17" d="m2112.5 1270.6c-12.3-9-5.1-20.4-2.9-20.8 0.7-10.2 13.7-29.3 48.2-8.8 1.5-6.6 6.6-6.6 4.4 1.5 5.9-1.5 7 3.3 5.1 4.4 16.5 13.9 12.5 26.8 9.2 30.1 2.2 12.5-12.5 19.6-12.5 19.6-5.8-0.5-21.6 11.9-26 9-4.4-2.9-16.5-9.3-17.8-15.3-1.3-6-7.7-19.7-7.7-19.7z"/>
							</g>
							<path id="&lt;Mesh&gt;" class="s28" d="m2104.3 1289.2c0.1 0.1 0.3 0.1 0.8 0.2 0-0.1 0.1-0.5 0.4-1-0.5 0-0.8 0.2-0.9 0.2q-0.4 0.5-0.3 0.6zm0.3-0.6c0.1 0 0.4-0.2 0.9-0.2 0.9-1.6 3.6-4.9 5.7-7.2q-0.6 0.6-1.2 1.2c-2.2 2.5-4.6 5.1-5.4 6.2zm0.5 0.8c2.5 0.4 9.9 0.8 9.9 0.8q0-2.7 0-4.9c0 0-7.1 3.2-9.5 3.1-0.3 0.5-0.4 0.9-0.4 1zm0.4-1c2.4 0.1 9.5-3.1 9.5-3.1 0-5.3 0.1-8.2 0.1-8.2 0 0-1.8 1.9-3.9 4.1-2.1 2.3-4.8 5.6-5.7 7.2z"/>
							<g id="&lt;Group&gt;">
								<path id="&lt;Path&gt;" class="s16" d="m2164 1296.6c0 0-3.5 31.3 8.1 37.3-17.2 4.6-43.7 8.6-50.9-1.4 7.6 0 7.8-2.8 7.8-10.4-18.5-3.3-16.6-17.8-17.8-39.1-0.5-10.1-1.2-20.4 0-28.3 1.9 8.9 15.4 13.5 15.4 13.5-1.6 7.5 1.3 16.8 9 16.1 7.7-0.7 9.6 1.7 9.6 1.7-1.1 8.6 10.1 12.3 18.8 10.6z"/>
							</g>
							<g id="&lt;Group&gt;">
								<path id="&lt;Path&gt;" class="s29" d="m2117.4 1291c-1.3 1.9-2.6 3.2-2.9 3-0.3-0.2 0.5-1.9 1.8-3.8 1.3-1.8 2.6-3.2 2.9-3 0.3 0.3-0.5 2-1.8 3.8z"/>
							</g>
							<g id="&lt;Group&gt;">
								<path id="&lt;Path&gt;" class="s29" d="m2121.3 1291.1c-1.3 1.9-2.6 3.2-2.9 3-0.3-0.2 0.5-1.9 1.8-3.8 1.3-1.8 2.6-3.2 2.9-3 0.3 0.3-0.5 1.9-1.8 3.8z"/>
							</g>
							<g id="&lt;Group&gt;">
								<path id="&lt;Path&gt;" class="s29" d="m2125.4 1291c-1.3 1.9-2.6 3.2-2.9 3-0.3-0.2 0.5-1.9 1.8-3.8 1.3-1.8 2.6-3.2 2.9-3 0.3 0.3-0.5 2-1.8 3.8z"/>
							</g>
							<g id="&lt;Group&gt;">
								<path id="&lt;Path&gt;" class="s19" d="m2147 1285.8c0 4.4-3.6 8-8 8-4.4 0-8-3.6-8-8 0-4.4 3.6-8 8-8 4.4 0 8 3.6 8 8z"/>
							</g>
							<g id="&lt;Group&gt;" style="mix-blend-mode: multiply">
								<g id="&lt;Group&gt;">
									<path id="&lt;Path&gt;" class="s26" d="m2137.3 1290.2c-0.2 0-0.4-0.1-0.5-0.3-0.1-0.3 0.1-0.6 0.3-0.7 0.7-0.4 1.1-0.8 1.2-1.3 0-0.6-0.3-1.2-0.9-1.5-0.6-0.4-1.3-0.4-1.9-0.1-0.2 0.1-0.4 0.1-0.5 0-0.2-0.1-0.3-0.3-0.3-0.5 0.1-1.9 1.4-3.5 3.4-4.2 2.1-0.6 4.3 0 5.5 1.6 0.1 0.3 0.1 0.6-0.1 0.8-0.3 0.2-0.6 0.1-0.8-0.1-1.1-1.5-3-1.6-4.2-1.2-1.1 0.3-2.2 1.1-2.6 2.3 0.7-0.1 1.5 0.1 2.1 0.5 0.9 0.6 1.4 1.5 1.3 2.5 0 0.5-0.3 1.5-1.8 2.1q-0.1 0.1-0.2 0.1z"/>
								</g>
							</g>
							<g id="&lt;Group&gt;" style="mix-blend-mode: multiply">
								<g id="&lt;Group&gt;">
									<path id="&lt;Path&gt;" class="s26" d="m2129.9 1320.5q-0.2 0-0.3-0.2c-0.3-0.2-0.3-0.5-0.1-0.8 7.7-9.2 7.9-21.9 7.9-22 0-0.3 0.3-0.5 0.6-0.5q0 0 0 0c0.3 0 0.6 0.2 0.6 0.5 0 0.2-0.3 13.2-8.2 22.8q-0.2 0.2-0.5 0.2z"/>
								</g>
							</g>
						</g>
						<g id="&lt;Group&gt;">
							<path id="&lt;Path&gt;" class="s30" d="m2198.9 1345.9c49.1 50 81 143-3.8 157.3-84.9 14.3 3.8-157.3 3.8-157.3z"/>
						</g>
						<g id="&lt;Group&gt;">
							<path id="&lt;Path&gt;" class="s31" d="m2122.8 1331.8c-14 2.6-25.2 9.8-25.2 9.8-23.2 36.2-34.1 170.2-34.1 170.2l145.4 2.3c0.5-10 1.9-156.8-10-168.2-11.9-11.5-30.3-15.5-30.3-15.5 0 0-29.8 0.2-45.8 1.4z"/>
						</g>
						<g id="&lt;Group&gt;">
							<path id="&lt;Path&gt;" class="s16" d="m1968.4 1416.9c-0.8-3.1-5.5-22.9-6.7-25.1-1.2-2.2-18.1-17.1-19.9-18-1.8-0.9-16-5.5-16.4-5.4-2.5 3.3-0.4 6.5 3.3 9.2 3.7 2.8 8.9 5.8 9.2 6.4 0.3 0.7 2.8 4.7 2 5.1-0.8 0.4-5.9 10.4-7.1 13.6-1.1 3.3-0.2 8.5 3.1 12.7 3.4 4.3 23.5 18.9 23.5 18.9z"/>
						</g>
						<g id="&lt;Group&gt;">
							<path id="&lt;Path&gt;" class="s32" d="m2097.6 1341.6c-14.6 8.2-29.8 39.4-41.9 58.4-12.1 19.1-56.3 36.6-88.7 3.9-1.6 1.5-9.9 31.1-9.9 31.1 6.7 20.3 47.1 52.1 97.6 45.5 50.6-6.7 60.7-59.5 62-75.4 2.2-27.8-4.1-58.8-19.1-63.5z"/>
						</g>
						<g id="&lt;Group&gt;" style="mix-blend-mode: multiply">
							<g id="&lt;Group&gt;">
								<path id="&lt;Path&gt;" class="s33" d="m2039.7 1426.7c-0.2 0.1-0.5 0.1-0.6-0.1-1.1-1.2-2.1-3.9-2.9-6-0.3-0.8-0.7-1.8-0.9-2.3-0.4 0.9-1 3.5-0.4 4.3 0.1 0.2 0.1 0.5-0.2 0.6-0.2 0.2-0.5 0.1-0.6-0.1-0.7-1-0.3-3.2 0.1-4.3 0.4-1.4 0.7-1.6 0.9-1.6 0.1-0.1 0.3-0.1 0.4 0 0.4 0.2 0.6 0.7 1.5 3 0.8 2 1.8 4.7 2.7 5.8 0.2 0.2 0.2 0.5 0 0.6q0 0.1 0 0.1z"/>
							</g>
						</g>
					</g>
					<g id="&lt;Group&gt;">
						<g id="&lt;Group&gt;">
							<path id="&lt;Path&gt;" class="s12" d="m2183.7 1786.6h21v-167.3h-21z"/>
						</g>
						<g id="&lt;Group&gt;">
							<path id="&lt;Path&gt;" class="s12" d="m2135.6 1786.6h117.2v-18.3h-117.2z"/>
						</g>
						<g id="&lt;Group&gt;">
							<path id="&lt;Path&gt;" class="s34" d="m2029 1590.1h269.9v29.7h-269.9c-4.8 0-8.8-4-8.8-8.8v-12.2c0-4.8 4-8.7 8.8-8.7z"/>
						</g>
						<g id="&lt;Group&gt;">
							<path id="&lt;Path&gt;" class="s35" d="m2139.6 1619.8h149.5v-254.5c0-24.4-19.8-44.1-44.1-44.1h-61.3c-24.4 0-44.1 19.7-44.1 44.1z"/>
						</g>
						<g id="&lt;Group&gt;">
							<path id="&lt;Path&gt;" class="s36" d="m2149.6 1619.8h149.5v-254.5c0-24.4-19.7-44.1-44.1-44.1h-61.2c-24.4 0-44.2 19.7-44.2 44.1z"/>
						</g>
						<g id="&lt;Group&gt;">
							<path id="&lt;Path&gt;" class="s35" d="m2018.8 1518.8h120.3c3.5 0 6.4-2.9 6.4-6.4v-8.9c0-3.5-2.9-6.4-6.4-6.4h-120.3c-3.6 0-6.4 2.9-6.4 6.4v8.9c0 3.5 2.8 6.4 6.4 6.4z"/>
						</g>
						<g id="&lt;Group&gt;">
							<path id="&lt;Path&gt;" class="s12" d="m2134.8 1644.7h118.9v-25.4h-118.9z"/>
						</g>
						<g id="&lt;Group&gt;">
							<g id="&lt;Group&gt;">
								<path id="&lt;Path&gt;" class="s11" d="m2230.4 1793.6c0 11 8.9 19.9 19.8 19.9 11 0 19.9-8.9 19.9-19.9 0-10.9-8.9-19.8-19.9-19.8-10.9 0-19.8 8.9-19.8 19.8z"/>
							</g>
							<g id="&lt;Group&gt;">
								<path id="&lt;Path&gt;" class="s12" d="m2240.2 1793.6c0 5.6 4.5 10.1 10 10.1 5.6 0 10.1-4.5 10.1-10.1 0-5.5-4.5-10-10.1-10-5.5 0-10 4.5-10 10z"/>
							</g>
							<g id="&lt;Group&gt;">
								<path id="&lt;Path&gt;" class="s11" d="m2236.4 1762.1h27.7c4.2 0 7.7 3.5 7.7 7.8v15h-43.1v-15c0-4.3 3.4-7.8 7.7-7.8z"/>
							</g>
						</g>
						<g id="&lt;Group&gt;">
							<g id="&lt;Group&gt;">
								<path id="&lt;Path&gt;" class="s11" d="m2173.4 1793.6c0 11 8.9 19.9 19.9 19.9 10.9 0 19.8-8.9 19.8-19.9 0-10.9-8.9-19.8-19.8-19.8-11 0-19.9 8.9-19.9 19.8z"/>
							</g>
							<g id="&lt;Group&gt;">
								<path id="&lt;Path&gt;" class="s12" d="m2183.2 1793.6c0 5.6 4.5 10.1 10.1 10.1 5.5 0 10-4.5 10-10.1 0-5.5-4.5-10-10-10-5.6 0-10.1 4.5-10.1 10z"/>
							</g>
							<g id="&lt;Group&gt;">
								<path id="&lt;Path&gt;" class="s11" d="m2179.4 1762.1h27.7c4.3 0 7.7 3.5 7.7 7.8v15h-43.1v-15c0-4.3 3.4-7.8 7.7-7.8z"/>
							</g>
						</g>
						<g id="&lt;Group&gt;">
							<g id="&lt;Group&gt;">
								<path id="&lt;Path&gt;" class="s11" d="m2116.4 1793.6c0 11 8.9 19.9 19.9 19.9 10.9 0 19.8-8.9 19.8-19.9 0-10.9-8.9-19.8-19.8-19.8-11 0-19.9 8.9-19.9 19.8z"/>
							</g>
							<g id="&lt;Group&gt;">
								<path id="&lt;Path&gt;" class="s12" d="m2126.2 1793.6c0 5.6 4.5 10.1 10.1 10.1 5.5 0 10-4.5 10-10.1 0-5.5-4.5-10-10-10-5.6 0-10.1 4.5-10.1 10z"/>
							</g>
							<g id="&lt;Group&gt;">
								<path id="&lt;Path&gt;" class="s11" d="m2122.4 1762.1h27.7c4.3 0 7.8 3.5 7.8 7.8v15h-43.2v-15c0-4.3 3.5-7.8 7.7-7.8z"/>
							</g>
						</g>
					</g>
				</g>
			</g>
			<g id="&lt;Group&gt;">
				<g id="&lt;Group&gt;">
				</g>
				<g id="&lt;Group&gt;">
					<g id="&lt;Group&gt;" style="mix-blend-mode: multiply">
						<g id="&lt;Group&gt;">
						</g>
					</g>
				</g>
			</g>
			<g id="&lt;Group&gt;">
				<path id="&lt;Path&gt;" class="s9" d="m2737.7 1861.6h-2495.6v-14.6c0-18.5 15.1-33.6 33.7-33.6h2428.3c18.5 0 33.6 15.1 33.6 33.6z"/>
			</g>
			<g id="&lt;Group&gt;">
				<g id="&lt;Group&gt;">
					<g id="&lt;Group&gt;">
						<path id="&lt;Path&gt;" class="s12" d="m479.1 1785.6h-21.5v-171.7h21.5z"/>
					</g>
					<g id="&lt;Group&gt;">
						<path id="&lt;Path&gt;" class="s12" d="m528.5 1785.6h-120.3v-18.8h120.3z"/>
					</g>
					<g id="&lt;Group&gt;">
						<path id="&lt;Path&gt;" class="s37" d="m514.1 1614.3h-153.5v-262.4c0-24.4 19.8-44.2 44.2-44.2h65.2c24.4 0 44.1 19.8 44.1 44.2z"/>
					</g>
					<g id="&lt;Group&gt;">
						<path id="&lt;Path&gt;" class="s5" d="m524.5 1614.3h-153.5v-262.4c0-24.4 19.7-44.2 44.1-44.2h65.2c24.4 0 44.2 19.8 44.2 44.2z"/>
					</g>
					<g id="&lt;Group&gt;">
						<path id="&lt;Path&gt;" class="s12" d="m529.4 1639.9h-122.1v-26h122.1z"/>
					</g>
					<g id="&lt;Group&gt;">
						<g id="&lt;Group&gt;">
							<path id="&lt;Path&gt;" class="s11" d="m431.2 1792.8c0 11.3-9.1 20.4-20.3 20.4-11.3 0-20.4-9.1-20.4-20.4 0-11.2 9.1-20.3 20.4-20.3 11.2 0 20.3 9.1 20.3 20.3z"/>
						</g>
						<g id="&lt;Group&gt;">
							<path id="&lt;Path&gt;" class="s12" d="m421.2 1792.8c0 5.7-4.6 10.4-10.3 10.4-5.8 0-10.4-4.7-10.4-10.4 0-5.7 4.6-10.3 10.4-10.3 5.7 0 10.3 4.6 10.3 10.3z"/>
						</g>
						<g id="&lt;Group&gt;">
							<path id="&lt;Path&gt;" class="s11" d="m425.3 1760.5h-28.9c-4.2 0-7.7 3.5-7.7 7.7v15.7h44.3v-15.7c0-4.2-3.5-7.7-7.7-7.7z"/>
						</g>
					</g>
					<g id="&lt;Group&gt;">
						<g id="&lt;Group&gt;">
							<path id="&lt;Path&gt;" class="s11" d="m489.7 1792.8c0 11.3-9.1 20.4-20.3 20.4-11.3 0-20.4-9.1-20.4-20.4 0-11.2 9.1-20.3 20.4-20.3 11.2 0 20.3 9.1 20.3 20.3z"/>
						</g>
						<g id="&lt;Group&gt;">
							<path id="&lt;Path&gt;" class="s12" d="m479.7 1792.8c0 5.7-4.6 10.4-10.3 10.4-5.8 0-10.4-4.7-10.4-10.4 0-5.7 4.6-10.3 10.4-10.3 5.7 0 10.3 4.6 10.3 10.3z"/>
						</g>
						<g id="&lt;Group&gt;">
							<path id="&lt;Path&gt;" class="s11" d="m483.8 1760.5h-28.9c-4.2 0-7.7 3.5-7.7 7.7v15.7h44.3v-15.7c0-4.2-3.5-7.7-7.7-7.7z"/>
						</g>
					</g>
					<g id="&lt;Group&gt;">
						<g id="&lt;Group&gt;">
							<path id="&lt;Path&gt;" class="s11" d="m548.2 1792.8c0 11.3-9.1 20.4-20.3 20.4-11.3 0-20.4-9.1-20.4-20.4 0-11.2 9.1-20.3 20.4-20.3 11.2 0 20.3 9.1 20.3 20.3z"/>
						</g>
						<g id="&lt;Group&gt;">
							<path id="&lt;Path&gt;" class="s12" d="m538.2 1792.8c0 5.7-4.6 10.4-10.3 10.4-5.8 0-10.4-4.7-10.4-10.4 0-5.7 4.6-10.3 10.4-10.3 5.7 0 10.3 4.6 10.3 10.3z"/>
						</g>
						<g id="&lt;Group&gt;">
							<path id="&lt;Path&gt;" class="s11" d="m542.3 1760.5h-28.9c-4.2 0-7.7 3.5-7.7 7.7v15.7h44.3v-15.7c0-4.2-3.5-7.7-7.7-7.7z"/>
						</g>
					</g>
					<g id="&lt;Group&gt;">
						<path id="&lt;Path&gt;" class="s37" d="m638.2 1583.8h-277.3v30.5h277.3c4.9 0 8.8-3.9 8.8-8.7v-13c0-4.8-3.9-8.8-8.8-8.8z"/>
					</g>
				</g>
				<g id="&lt;Group&gt;">
					<g id="&lt;Group&gt;">
						<path id="&lt;Path&gt;" class="s38" d="m553 1339.7c66.5 51.1 75.7 126.8 75.7 126.8l-128.5 2.2z"/>
					</g>
					<g id="&lt;Group&gt;">
						<g id="&lt;Group&gt;">
							<path id="&lt;Path&gt;" class="s16" d="m637.9 1782.2c2.7-5.5 5.6-15.8 4.9-30.6-0.8-5.6-1.7-12.6-2.8-20.6q-0.8-6-1.6-12.7l26.5 7.1c-0.4 4.8-0.8 9.3-1.2 13.4-0.9 8.8-0.6 17.6 1 26.2 0.5 2.6 1 4.9 1.6 6 2.1 4.3 17.4 19.1 24.3 31.9 0.7 1.5 16.5 4 14.1 7.6-1.4 0.8-29 3-32 0-3.1-2.9-10.4-10.3-18.6-12-0.5 0.1-0.5 13.4-0.5 13.4h-11.9c0 0-1.4-11.7-1.9-15.3-0.6-3.5-4.6-9-1.9-14.4z"/>
						</g>
						<g id="&lt;Group&gt;">
							<path id="&lt;Path&gt;" class="s17" d="m690.7 1803c-5 0.6-10.4 1.7-12.3 0.9-2.6-1.2-19.6-22.2-38.3-27.4-0.7 2.2-1.4 4.1-2.2 5.7-2.7 5.4 1.3 10.9 1.9 14.4 0.5 3.6 1.9 15.3 1.9 15.3h11.9c0 0 0-13.3 0.5-13.4 8.2 1.7 15.5 9.1 18.6 12 3 3 30.6 0.8 32 0 2.3-3.5-12.5-5.8-14-7.5z"/>
						</g>
					</g>
					<g id="&lt;Group&gt;">
						<path id="&lt;Path&gt;" class="s17" d="m554.5 1305.5c5.3-5.1 3.3-13.2-4.1-17.5-7.4-4.3-13.9-9.8-8.6-18.9l-38.3-32.1c-14.6-2.1-32.3 11.7-33.5 25.4-1.2 13.6-6 16.7-11.2 19.8-5.3 3.2-6 10.8-2.2 18.7 3.8 7.9-3.3 18-3.3 18h103.1c-4.5-1.9-7.2-8.4-1.9-13.4z"/>
					</g>
					<g id="&lt;Group&gt;">
						<path id="&lt;Path&gt;" class="s20" d="m541.7 1485.3l23.2 18.9c57.6 8.4 154.3 14.4 159.1 46.5 4.8 32.2-38.1 136-38.1 136l-2.7 69.8h-52.1l-32.1-159.6c0 0-128.5 6.8-149.9-29.6-17.3-29.2 5-65.4 5-65.4l69.3-44z"/>
					</g>
					<g id="&lt;Group&gt;" style="mix-blend-mode: multiply">
						<g id="&lt;Group&gt;">
							<path id="&lt;Path&gt;" class="s39" d="m684.4 1683.1q0 0 0 0c0.4 0 0.7-0.3 0.7-0.7-0.1-4.3-3.6-121.9-14.3-139.7-10.8-18-116.2-27.8-120.7-28.2-0.4-0.1-0.7 0.2-0.8 0.6 0 0.4 0.3 0.7 0.6 0.7 1.1 0.1 109.3 10.2 119.7 27.6 10.5 17.5 14.1 138 14.1 139.1 0 0.3 0.4 0.6 0.7 0.6z"/>
						</g>
					</g>
					<g id="&lt;Group&gt;" style="mix-blend-mode: multiply">
						<g id="&lt;Group&gt;">
							<path id="&lt;Path&gt;" class="s39" d="m600 1596.5c1.5 0 5.5-2.4 7.2-3.5 0.4-0.2 0.5-0.6 0.3-1-0.2-0.3-0.7-0.4-1-0.2-2.3 1.5-5.1 3-6.2 3.3 0-0.9 0.6-3.3 1.1-5 0.6-2.7 1.3-5.5 1.3-7.2 0-0.3-0.3-0.7-0.6-0.7-0.4 0-0.7 0.4-0.7 0.7 0 1.6-0.7 4.4-1.4 6.8-1 4.1-1.3 5.6-0.8 6.4q0.2 0.3 0.6 0.4 0.1 0 0.2 0z"/>
						</g>
					</g>
					<g id="&lt;Group&gt;" style="mix-blend-mode: multiply">
						<g id="&lt;Group&gt;">
							<path id="&lt;Path&gt;" class="s39" d="m485.5 1538.3q0.1 0 0.3-0.1c2.7-0.9 5.9-4.6 7.8-8.9 1.6-3.8 3.8-11.6-0.5-20.7-0.1-0.3-0.5-0.5-0.9-0.3-0.3 0.1-0.5 0.5-0.3 0.9 4 8.6 2 15.9 0.4 19.5-1.9 4.5-5 7.6-7 8.2-0.3 0.2-0.5 0.6-0.4 0.9 0.1 0.3 0.3 0.5 0.6 0.5z"/>
						</g>
					</g>
					<g id="&lt;Group&gt;" style="mix-blend-mode: multiply">
						<g id="&lt;Group&gt;">
							<path id="&lt;Path&gt;" class="s39" d="m646.1 1755q0.1 0 0.1 0c0.4 0 0.7-0.3 0.6-0.7-1.4-15-15.2-162.5-22.8-166.1-2.1-1-3.3-1.9-3.6-2.9-0.3-1.3 0.8-2.8 2.3-4.8 0.7-0.9 1.4-2 2.1-3.1 0.2-0.4 0.2-0.8 0.1-1.2-1.8-3.5-31-7.5-75.5-13.2-18.6-2.4-34.7-4.5-42-6-20.2-4-33.8-20.6-33.8-41.1 0-0.4-0.3-0.7-0.7-0.7-0.4 0-0.7 0.3-0.7 0.7 0 20.8 14.4 38.3 34.9 42.5 7.3 1.5 23.5 3.5 42.1 5.9 28.8 3.7 72.2 9.3 74.4 12.5-0.7 1-1.4 2-2 2.9-1.6 2.2-3 4-2.5 5.9 0.4 1.5 1.7 2.7 4.3 3.9 5.3 2.4 16.5 106.5 22.1 164.9 0 0.4 0.3 0.6 0.6 0.6z"/>
						</g>
					</g>
					<g id="&lt;Group&gt;">
						<path id="&lt;Path&gt;" class="s6" d="m560.3 1499.3h-100.2c-26-86.1-9.6-155.5-9.6-155.5 12.6-9.5 28-11.3 28-11.3l41.8-1.1c16.2 0.7 32.7 7.9 32.7 7.9 10.1 30.5 25.8 55.8 25.2 72.1-0.6 16.3-23.8 53.9-17.9 87.9z"/>
					</g>
					<g id="&lt;Group&gt;">
						<path id="&lt;Path&gt;" class="s17" d="m499.2 1305.5c-17.7 3.1-28.1-13.4-22.9-26.4-1.4-26.6 9.9-52.8 49.7-38.5 19.8 2.4 27.5 28.6 11.2 35.4-21.7 19.2-38 29.5-38 29.5z"/>
					</g>
					<g id="&lt;Group&gt;">
						<path id="&lt;Path&gt;" class="s16" d="m515.1 1315.8c-1.2 7.4-2.2 14.7 9.3 15.9 12.1 19.2 6.9 35.3 1.4 36.9-14.3 4.4-50.6-32.1-50.5-35.7 0-0.6 9-2.6 12.2-8.3 3.3-5.7 4.8-20.3 3.6-39.8 7.6 2 10.2-4 10.4-14.4 0.1-10.3 5.1-26.9 25.2-24.3 7.6 9.3 11.6 15.2 11 27.3-0.6 12 0.7 20.6-0.7 26.4-1.5 5.7-7.7 16.3-21.9 16z"/>
					</g>
					<path id="&lt;Mesh&gt;" class="s40" d="m526.6 1292.6c0 0 0.9-0.7 1.8-1.7 0.6-0.9 1.7-2.3 2.4-3.1-1.2 0.1-4.6 0.6-5.8 0.2-0.7 1.4-0.3 3.6 1.6 4.6zm-1.6-4.6c1.2 0.4 4.6-0.1 5.8-0.2 0.2-0.3 0.3-0.5 0.4-0.6-1.2-0.1-3.8 0.1-5.2-0.4-0.5 0.2-0.8 0.7-1 1.2zm3.4 2.9q0.5-0.4 1-0.9c0.9-0.9 1.9-1.8 2.3-2.3-0.1 0-0.6 0-0.9 0.1-0.7 0.8-1.8 2.2-2.4 3.1zm2.4-3.1c0.3-0.1 0.8-0.1 0.9-0.1q0.2-0.3 0.1-0.3c0-0.1-0.2-0.2-0.6-0.2-0.1 0.1-0.2 0.3-0.4 0.6z"/>
					<g id="&lt;Group&gt;">
						<path id="&lt;Path&gt;" class="s16" d="m481.1 1288.9c0 3.4 2.7 6.2 6.1 6.2 3.4 0 6.2-2.8 6.2-6.2 0-3.4-2.8-6.2-6.2-6.2-3.4 0-6.1 2.8-6.1 6.2z"/>
					</g>
					<g id="&lt;Group&gt;" style="mix-blend-mode: multiply">
						<g id="&lt;Group&gt;">
							<path id="&lt;Path&gt;" class="s26" d="m488.5 1292.1c0.2 0 0.4-0.1 0.4-0.2 0.1-0.2 0-0.5-0.2-0.5q-0.8-0.4-0.9-1c0-0.4 0.3-0.9 0.7-1.1 0.4-0.3 1-0.4 1.4-0.1q0.2 0.1 0.4 0 0.2-0.2 0.2-0.4c0-1.5-1-2.7-2.6-3.1-1.6-0.5-3.2 0-4.1 1.2-0.1 0.2-0.1 0.4 0.1 0.6 0.2 0.1 0.4 0 0.6-0.1 0.8-1.2 2.2-1.2 3.2-1 0.8 0.3 1.6 0.9 1.9 1.8-0.5-0.1-1.1 0.1-1.6 0.4-0.6 0.4-1 1.2-1 1.9 0.1 0.4 0.3 1.1 1.4 1.6q0.1 0 0.1 0z"/>
						</g>
					</g>
					<g id="&lt;Group&gt;" style="mix-blend-mode: multiply">
						<g id="&lt;Group&gt;">
							<path id="&lt;Path&gt;" class="s26" d="m513.9 1315.7q-0.1 0-0.2 0c-10.2-2.9-18.4-11.5-20.9-21.9 0-0.2 0.1-0.5 0.3-0.5 0.2-0.1 0.5 0.1 0.5 0.3 2.4 10.1 10.4 18.5 20.4 21.4 0.2 0 0.3 0.2 0.2 0.5 0 0.1-0.2 0.2-0.3 0.2z"/>
						</g>
					</g>
					<g id="&lt;Group&gt;">
						<g id="&lt;Group&gt;">
							<path id="&lt;Path&gt;" class="s17" d="m503.8 1271.3q-0.2 0-0.3-0.2c-0.1-0.2 0-0.5 0.2-0.6 5.1-2.9 11.2-3.1 13.8-2.4 0.2 0.1 0.3 0.3 0.2 0.5 0 0.2-0.2 0.4-0.5 0.3-2-0.6-8-0.6-13.2 2.3q0 0.1-0.2 0.1z"/>
						</g>
					</g>
					<g id="&lt;Group&gt;">
						<g id="&lt;Group&gt;">
							<path id="&lt;Path&gt;" class="s17" d="m536.1 1271.7q-0.2 0-0.3-0.2c0-0.1-1.6-2.1-6.7-1.5-0.2 0.1-0.4-0.1-0.5-0.3 0-0.2 0.2-0.4 0.4-0.4 5.4-0.7 7.3 1.5 7.5 1.8 0.1 0.1 0.1 0.4-0.1 0.5q-0.1 0.1-0.3 0.1z"/>
						</g>
					</g>
					<g id="&lt;Group&gt;">
						<g id="&lt;Group&gt;">
							<path id="&lt;Path&gt;" class="s17" d="m527 1292.7q-0.2 0-0.4-0.1c-0.1-0.2-0.1-0.4 0.1-0.6 2.1-1.6 4.3-3.6 4.8-4.3-0.3-0.1-1.1-0.1-1.7-0.1-1.4 0-3 0-4-0.6-2.1-1.2 0-10.1 1.8-14.3 0.1-0.2 0.4-0.3 0.5-0.2 0.2 0.1 0.3 0.3 0.3 0.5-2.2 4.9-3.5 12.6-2.2 13.3 0.8 0.5 2.4 0.5 3.7 0.5 1.5 0 2.5 0.1 2.5 0.8 0 0.8-2.8 3.2-5.2 5.1q-0.1 0-0.2 0z"/>
						</g>
					</g>
					<g id="&lt;Group&gt;">
						<path id="&lt;Path&gt;" class="s17" d="m514.9 1279.5c0 2.3-1 4.2-2.4 4.2-1.3 0-2.4-1.9-2.4-4.2 0-2.4 1.1-4.3 2.4-4.3 1.4 0 2.4 1.9 2.4 4.3z"/>
					</g>
					<g id="&lt;Group&gt;" style="mix-blend-mode: multiply">
						<g id="&lt;Group&gt;">
							<path id="&lt;Path&gt;" class="s26" d="m512 1285.2c-0.8 0-2.6-0.4-3.2-3.4-0.1-0.1 0-0.2 0.1-0.2 0.1 0 0.2 0 0.2 0.1 0.6 3 2.4 3.1 3.1 3.1 0.1 0 0.2 0 0.2 0.1 0 0.2-0.1 0.3-0.2 0.3q-0.1 0-0.2 0z"/>
						</g>
					</g>
					<g id="&lt;Group&gt;">
						<path id="&lt;Path&gt;" class="s17" d="m533.1 1280c0 2.3-1.1 4.2-2.4 4.2-1.3 0-2.4-1.9-2.4-4.2 0-2.4 1.1-4.3 2.4-4.3 1.3 0 2.4 1.9 2.4 4.3z"/>
					</g>
					<g id="&lt;Group&gt;" style="mix-blend-mode: multiply">
						<g id="&lt;Group&gt;">
							<path id="&lt;Path&gt;" class="s26" d="m530.2 1285.7c-0.9 0-2.7-0.4-3.3-3.4 0-0.1 0.1-0.2 0.2-0.2 0.1 0 0.2 0 0.2 0.1 0.6 3 2.3 3.1 3 3.1 0.2 0 0.2 0.1 0.3 0.2 0 0.1-0.1 0.2-0.2 0.2q-0.1 0-0.2 0z"/>
						</g>
					</g>
					<g id="&lt;Group&gt;">
						<path id="&lt;Path&gt;" class="s29" d="m509.3 1289c-0.9 1.2-1.6 2.4-1.4 2.5 0.2 0.1 1.1-0.8 2-2.1 1-1.2 1.6-2.4 1.4-2.5-0.1-0.1-1.1 0.8-2 2.1z"/>
					</g>
					<g id="&lt;Group&gt;">
						<path id="&lt;Path&gt;" class="s29" d="m511.7 1289.3c-0.9 1.3-1.5 2.4-1.4 2.5 0.2 0.1 1.1-0.8 2-2.1 1-1.2 1.6-2.4 1.4-2.5-0.1-0.1-1 0.8-2 2.1z"/>
					</g>
					<g id="&lt;Group&gt;">
						<path id="&lt;Path&gt;" class="s29" d="m514.4 1289.5c-0.9 1.3-1.6 2.4-1.4 2.6 0.2 0.1 1.1-0.8 2-2.1 1-1.3 1.6-2.4 1.4-2.5-0.1-0.1-1 0.8-2 2z"/>
					</g>
					<g id="&lt;Group&gt;">
						<path id="&lt;Path&gt;" class="s6" d="m491.5 1297.4c0 1.6-1.3 2.9-2.9 2.9-1.6 0-2.9-1.3-2.9-2.9 0-1.6 1.3-2.9 2.9-2.9 1.6 0 2.9 1.3 2.9 2.9z"/>
					</g>
					<g id="&lt;Group&gt;" style="mix-blend-mode: multiply">
						<g id="&lt;Group&gt;">
							<path id="&lt;Path&gt;" class="s26" d="m513.7 1297.9c9.2-3.9 18-3.8 17.3-0.5 0.5 7.9-9.3 16.2-17.3 0.5z"/>
						</g>
					</g>
					<g id="&lt;Group&gt;" style="mix-blend-mode: multiply">
						<g id="&lt;Group&gt;">
							<path id="&lt;Path&gt;" class="s26" d="m523 1310.1c1 0 2.2-0.2 3.4-0.6 0.2-0.1 0.3-0.3 0.2-0.4 0-0.2-0.2-0.3-0.4-0.2-2.5 0.9-5 0.4-5.1 0.3-0.1 0-0.3 0.1-0.3 0.3-0.1 0.1 0 0.3 0.2 0.4 0.1 0 0.9 0.2 2 0.2z"/>
						</g>
					</g>
					<g id="&lt;Group&gt;">
						<g id="&lt;Group&gt;">
							<path id="&lt;Path&gt;" class="s17" d="m513.7 1297.9l17.3-0.5c0 7.7-11.3 11.3-17.3 0.5z"/>
						</g>
						<g id="&lt;Group&gt;">
							<path id="&lt;Path&gt;" class="s41" d="m527.8 1303.3c-2.3-3.3-5.6-4.7-5.6-4.7l-5.4-0.8-3.1 0.1c4 7.2 10.3 7.9 14.1 5.4z"/>
						</g>
						<g id="&lt;Group&gt;">
							<path id="&lt;Path&gt;" class="s6" d="m531 1297.4l-17.3 0.5c4 2.8 14.7 3.5 17.3-0.5z"/>
						</g>
					</g>
					<g id="&lt;Group&gt;">
						<path id="&lt;Path&gt;" class="s17" d="m526.7 1246.1c-1.1 16.8-24.6 19.3-28.9 18.4-4.3-0.9 6.9-25.7 28.9-18.4z"/>
					</g>
					<g id="&lt;Group&gt;">
						<path id="&lt;Path&gt;" class="s17" d="m564.3 1503.9c-3.1-6.4-4.9-14-4.9-14l-103.1-0.9c-4.6 14-5.2 15.8-5.2 15.8z"/>
					</g>
					<g id="&lt;Group&gt;">
						<path id="&lt;Path&gt;" class="s20" d="m504.5 1506.2h5.8v-18.6h-5.8z"/>
					</g>
					<g id="&lt;Group&gt;">
						<path id="&lt;Path&gt;" class="s20" d="m460.4 1505.9h5.8v-18.6h-5.8z"/>
					</g>
					<g id="&lt;Group&gt;">
						<g id="&lt;Group&gt;">
							<path id="&lt;Path&gt;" class="s16" d="m433.6 1468.5c-6.2 29.7-6.8 85.8-4 97.1 2.8 11.2-2.5 19.3-12 21-9.4 1.6-14.1 9.7-19.4 7.4-5.3-2.3 3.4-11.7 7.9-12.9-13.1 1-18.7 16.8-24.7 17.3-4.4 0.4-4.5-3.5-4.5-3.5-4.2-0.2-4.4-3.7-4.4-3.7-3.9-4.1 2.7-15.7 10.9-20 8.1-4.3 19.3-11.1 19.3-16.9 0.1-5.7-16.1-76.5-15.3-86.8 0.7-10.3 46.2 1 46.2 1z"/>
						</g>
						<g id="&lt;Group&gt;">
							<path id="&lt;Path&gt;" class="s6" d="m436.3 1454.4c7.6 3.8 9.6 15.5-4.2 20.3-13.8 4.8-42.5 3.4-48.5-5.9-5.8-8.8 3-15.8 6.8-16.8 3.8-0.9 45.9 2.4 45.9 2.4z"/>
						</g>
						<g id="&lt;Group&gt;">
							<path id="&lt;Path&gt;" class="s38" d="m451.2 1344.2c23.6 33 11.5 79.2-1.9 89.6-13.5 10.5-12.6 26.8-12.6 26.8-14.9 13.8-49.4 2.3-50.3-0.2 5.9-46.2 30.6-102.7 64.8-116.2z"/>
						</g>
						<g id="&lt;Group&gt;" style="mix-blend-mode: multiply">
							<g id="&lt;Group&gt;">
								<path id="&lt;Path&gt;" class="s26" d="m377.2 1593.4c0.2 0 0.3-0.1 0.4-0.3 0.5-2.2 4.1-12.2 11.8-17.9 0.2-0.2 0.2-0.4 0.1-0.6-0.1-0.1-0.3-0.2-0.5 0-7.9 5.8-11.6 16.1-12.1 18.4-0.1 0.2 0.1 0.4 0.2 0.4q0.1 0 0.1 0z"/>
							</g>
						</g>
						<g id="&lt;Group&gt;" style="mix-blend-mode: multiply">
							<g id="&lt;Group&gt;">
								<path id="&lt;Path&gt;" class="s26" d="m373.2 1589.7c0.2 0 0.3-0.1 0.4-0.3 0-0.1 1.2-6.1 5.5-11.2 0.1-0.2 0.1-0.4-0.1-0.5-0.1-0.2-0.4-0.2-0.5 0-4.4 5.3-5.6 11.3-5.6 11.6-0.1 0.2 0 0.4 0.2 0.4q0.1 0 0.1 0z"/>
							</g>
						</g>
					</g>
					<g id="&lt;Group&gt;">
						<g id="&lt;Group&gt;">
							<path id="&lt;Path&gt;" class="s17" d="m563.2 1319q-0.1 0-0.2 0c-1.8-0.4-4.3-2.8-5-5.6-0.5-1.9-0.4-4.7 2.6-7.5 2.6-2.3 3.8-5.4 3.3-8.5-0.6-4.2-4.3-8.2-10.4-11-14.3-6.6-13.3-16.6-10.2-26.4 0.2-0.5 0.7-0.7 1.2-0.6 0.5 0.2 0.7 0.7 0.6 1.2-3.5 10.7-3.1 18.4 9.2 24.2 6.6 3.1 10.7 7.5 11.4 12.3 0.6 3.8-0.8 7.5-3.8 10.2q-2.9 2.6-2.1 5.6c0.6 2.4 2.7 4.1 3.6 4.3 0.5 0.1 0.8 0.6 0.7 1.1-0.1 0.4-0.5 0.7-0.9 0.7z"/>
						</g>
					</g>
					<g id="&lt;Group&gt;">
						<g id="&lt;Group&gt;">
							<path id="&lt;Path&gt;" class="s17" d="m568.3 1302.5q-0.4 0-0.6-0.2c-0.4-0.4-0.5-0.9-0.1-1.3 1.7-2.1 2.3-4.3 1.7-6.8-1-4.6-6-9.3-12.7-12.1-10.8-4.4-13-9.6-13-17 0-0.5 0.5-0.9 1-0.9 0.5 0 0.9 0.4 0.9 0.9 0 7 1.8 11.2 11.8 15.3 7.2 3 12.6 8.2 13.8 13.4 0.7 3 0 5.9-2.2 8.4-0.1 0.2-0.4 0.3-0.6 0.3z"/>
						</g>
					</g>
					<g id="&lt;Group&gt;">
						<g id="&lt;Group&gt;">
							<path id="&lt;Path&gt;" class="s17" d="m446 1318.1c-0.5 0-0.9-0.4-0.9-0.9 0-0.5 0.4-0.9 0.9-0.9 2.3 0 4.5-1.7 5.8-4.6 1.7-3.6 2-9-1.3-13-3.1-3.8-4.4-8.1-3.6-12.1 0.8-3.5 3.2-6.5 6.8-8.3 1.2-0.6 2.5-1.2 3.9-1.7 6.5-2.9 13.3-5.8 13.9-15.3 0-0.5 0.4-0.9 1-0.9 0.5 0.1 0.8 0.5 0.8 1-0.6 10.6-8.3 13.9-15 16.8-1.3 0.6-2.6 1.2-3.8 1.8-3.1 1.5-5.1 4-5.8 7-0.7 3.4 0.4 7.2 3.2 10.6 3.8 4.6 3.5 10.7 1.6 14.9-1.7 3.5-4.5 5.6-7.5 5.6z"/>
						</g>
					</g>
					<g id="&lt;Group&gt;">
						<g id="&lt;Group&gt;">
							<path id="&lt;Path&gt;" class="s17" d="m445.7 1297.1q-0.3 0-0.5-0.1c-3.8-2.4-5.7-6.8-5.1-11.6 0.7-4.7 4.2-10.6 11.9-12.9 12.6-3.6 17.1-7.5 21.2-17.9 0.1-0.5 0.7-0.7 1.1-0.6 0.5 0.2 0.8 0.8 0.6 1.2-4.3 11-9.3 15.3-22.3 19.1-7 2-10.1 7.2-10.6 11.4-0.6 4.1 1 7.7 4.1 9.7 0.5 0.3 0.6 0.8 0.3 1.3-0.1 0.3-0.4 0.4-0.7 0.4z"/>
						</g>
					</g>
					<g id="&lt;Group&gt;">
						<g id="&lt;Group&gt;">
							<path id="&lt;Path&gt;" class="s17" d="m498.5 1288.3c-1.7 0-4.2-1.1-7.4-5-0.3-0.4-0.3-1 0.1-1.3 0.4-0.3 1-0.3 1.3 0.1 2.8 3.4 5.4 5 6.9 4.1 2.3-1.3 2.8-7.8-0.8-17.9-0.1-0.5 0.1-1 0.6-1.2 0.5-0.1 1 0.1 1.2 0.6 3.5 10.2 3.5 18.1-0.1 20.1-0.4 0.3-1 0.5-1.8 0.5z"/>
						</g>
					</g>
					<g id="&lt;Group&gt;">
						<g id="&lt;Group&gt;">
							<path id="&lt;Path&gt;" class="s17" d="m515.4 1262.7c-3.1 0-6.4-0.9-9.7-2.5-0.4-0.2-0.6-0.8-0.4-1.2 0.3-0.5 0.8-0.7 1.3-0.4 6.1 3 12.1 3 16.5-0.1 3.5-2.6 5.5-7.1 4.9-11.4 0-0.5 0.3-0.9 0.8-1 0.5-0.1 1 0.3 1.1 0.8 0.6 5-1.6 10-5.8 13.1-2.5 1.8-5.5 2.7-8.7 2.7z"/>
						</g>
					</g>
					<g id="&lt;Group&gt;">
						<g id="&lt;Group&gt;">
							<path id="&lt;Path&gt;" class="s22" d="m693 1409.4h-137.6l-23.9 101.5h137.7z"/>
						</g>
						<g id="&lt;Group&gt;">
							<path id="&lt;Path&gt;" class="s23" d="m699 1409.4h-137.6l-23.9 101.5h137.6z"/>
						</g>
						<g id="&lt;Group&gt;">
							<path id="&lt;Path&gt;" class="s22" d="m622.6 1467.8h-16.8v-7.2c0-4.5 3.6-8.1 8.1-8.1h16.8v7.2c0 4.4-3.6 8.1-8.1 8.1z"/>
						</g>
						<g id="&lt;Group&gt;">
							<path id="&lt;Path&gt;" class="s23" d="m484 1519.9h190.5v-9h-190.5z"/>
						</g>
					</g>
				</g>
			</g>
		</g>
		<g id="&lt;Group&gt;">
		</g>
	</g>
</svg>