<?xml version="1.0" encoding="utf-8"?>
<!-- Generator: Adobe Illustrator 24.1.3, SVG Export Plug-In . SVG Version: 6.00 Build 0)  -->
<svg version="1.1" id="Layer_1" xmlns="http://www.w3.org/2000/svg" xmlns:xlink="http://www.w3.org/1999/xlink" x="0px" y="0px"
	 viewBox="0 0 800 800" style="enable-background:new 0 0 800 800;" xml:space="preserve">
<style type="text/css">
	.st0{fill-rule:evenodd;clip-rule:evenodd;fill:url(#SVGID_1_);}
	.st1{fill-rule:evenodd;clip-rule:evenodd;fill:url(#SVGID_2_);}
	.st2{fill-rule:evenodd;clip-rule:evenodd;fill:url(#SVGID_3_);}
	.st3{fill-rule:evenodd;clip-rule:evenodd;fill:url(#SVGID_4_);}
	.st4{fill-rule:evenodd;clip-rule:evenodd;fill:url(#SVGID_5_);}
	.st5{fill-rule:evenodd;clip-rule:evenodd;fill:url(#SVGID_6_);}
</style>
<g>
	<g>
		<linearGradient id="SVGID_1_" gradientUnits="userSpaceOnUse" x1="172.5839" y1="675.0303" x2="172.5839" y2="124.9697">
			<stop  offset="0" style="stop-color:#8400FF"/>
			<stop  offset="1" style="stop-color:#4600FF"/>
		</linearGradient>
		<path class="st0" d="M246.16,661.04L18.99,433.88c-18.66-18.66-18.66-49.1,0-67.76l227.16-227.16c18.66-18.66,49.1-18.66,67.75,0
			l12.26,12.26c18.66,18.66,18.66,49.1,0,67.76L179.03,366.12c-18.66,18.66-18.66,49.1,0,67.76l147.14,147.14
			c18.66,18.66,18.66,49.1,0,67.76l-12.26,12.26C295.25,679.7,264.81,679.7,246.16,661.04z"/>
		<linearGradient id="SVGID_2_" gradientUnits="userSpaceOnUse" x1="627.4158" y1="675.0303" x2="627.4158" y2="124.9697">
			<stop  offset="0" style="stop-color:#8400FF"/>
			<stop  offset="1" style="stop-color:#4600FF"/>
		</linearGradient>
		<path class="st1" d="M553.85,661.04l227.16-227.16c18.66-18.66,18.66-49.1,0-67.76L553.85,138.96c-18.66-18.66-49.1-18.66-67.76,0
			l-12.26,12.26c-18.66,18.66-18.66,49.1,0,67.76l147.14,147.14c18.66,18.66,18.66,49.1,0,67.76L473.83,581.02
			c-18.66,18.66-18.66,49.1,0,67.76l12.26,12.26C504.75,679.7,535.19,679.7,553.85,661.04z"/>
	</g>
	<g>
		<linearGradient id="SVGID_3_" gradientUnits="userSpaceOnUse" x1="399.9988" y1="599.4905" x2="399.9988" y2="350.6868">
			<stop  offset="0" style="stop-color:#00FF28"/>
			<stop  offset="1" style="stop-color:#237228"/>
		</linearGradient>
		<path class="st2" d="M598.17,389.68c3.52,13.5,0.01,28.48-10.54,39.02L428.71,587.63c-15.81,15.81-41.61,15.81-57.42,0
			L212.37,428.71c-11.46-11.46-14.61-28.15-9.46-42.5c0.25-0.25,68.51-68.26,171.18-15.42
			C476.91,423.72,598.07,389.71,598.17,389.68z"/>
		<linearGradient id="SVGID_4_" gradientUnits="userSpaceOnUse" x1="463.3616" y1="357.572" x2="463.3616" y2="285.7159">
			<stop  offset="0" style="stop-color:#00FF28"/>
			<stop  offset="1" style="stop-color:#237228"/>
		</linearGradient>
		<path class="st3" d="M463.36,285.72c19.84,0,35.93,16.09,35.93,35.93c0,19.84-16.09,35.93-35.93,35.93
			c-19.84,0-35.93-16.09-35.93-35.93C427.43,301.8,443.52,285.72,463.36,285.72L463.36,285.72z"/>
		<linearGradient id="SVGID_5_" gradientUnits="userSpaceOnUse" x1="420.2448" y1="169.6085" x2="420.2448" y2="135.5729">
			<stop  offset="0" style="stop-color:#00FF28"/>
			<stop  offset="1" style="stop-color:#237228"/>
		</linearGradient>
		<path class="st4" d="M420.24,135.57c9.4,0,17.02,7.62,17.02,17.02c0,9.4-7.62,17.02-17.02,17.02c-9.4,0-17.02-7.62-17.02-17.02
			C403.23,143.19,410.85,135.57,420.24,135.57L420.24,135.57z"/>
		<linearGradient id="SVGID_6_" gradientUnits="userSpaceOnUse" x1="359.736" y1="280.7971" x2="359.736" y2="223.3106">
			<stop  offset="0" style="stop-color:#00FF28"/>
			<stop  offset="1" style="stop-color:#237228"/>
		</linearGradient>
		<path class="st5" d="M359.74,223.31c15.87,0,28.75,12.87,28.75,28.74c0,15.87-12.87,28.74-28.75,28.74
			c-15.87,0-28.74-12.87-28.74-28.74C330.99,236.18,343.86,223.31,359.74,223.31z"/>
	</g>
</g>
</svg>
