<?xml version="1.0" encoding="utf-8"?>
<!-- Generator: Adobe Illustrator 24.1.3, SVG Export Plug-In . SVG Version: 6.00 Build 0)  -->
<svg version="1.1" id="Layer_1" xmlns="http://www.w3.org/2000/svg" xmlns:xlink="http://www.w3.org/1999/xlink" x="0px" y="0px"
	 viewBox="0 0 800 800" style="enable-background:new 0 0 800 800;" xml:space="preserve">
<style type="text/css">
	.st0{fill:#FFFFFF;}
</style>
<g>
	<g>
		<g>
			<g>
				<path class="st0" d="M691.42,792.47c-28.57,0-55.44-11.13-75.62-31.32c-20.22-20.17-31.34-47.02-31.34-75.6
					c0-28.54,11.12-55.38,31.28-75.54c20.21-20.21,47.07-31.34,75.64-31.34c28.56,0,55.4,11.1,75.57,31.29
					c41.69,41.7,41.69,109.55,0,151.24C746.78,781.37,719.96,792.47,691.42,792.47z"/>
			</g>
			<g>
				<path class="st0" d="M110.65,222.42c-28.57,0-55.43-11.13-75.64-31.34c-20.19-20.17-31.32-47.02-31.32-75.59
					c0-28.55,11.1-55.38,31.27-75.54C55.19,19.73,82.06,8.6,110.63,8.6c28.53,0,55.38,11.11,75.54,31.29
					c20.22,20.2,31.35,47.07,31.35,75.62c0,28.57-11.13,55.42-31.33,75.62C166.02,211.3,139.18,222.42,110.65,222.42z"/>
			</g>
			<path class="st0" d="M686.65,219.28c-28.59,0-55.43-11.13-75.62-31.32c-41.67-41.69-41.71-109.5-0.06-151.16
				c20.2-20.21,47.06-31.35,75.65-31.35c28.55,0,55.4,11.13,75.59,31.32c41.67,41.67,41.67,109.52,0,151.26
				C742.03,208.17,715.18,219.28,686.65,219.28z"/>
			<g>
				<path class="st0" d="M113.4,791.88c-28.53,0-55.36-11.12-75.56-31.28C17.68,740.43,6.58,713.64,6.6,685.1
					c0-28.52,11.13-55.33,31.31-75.49c4.22-4.25,8.98-8.14,15.04-12.23c1.82-1.27,3.51-2.28,5.24-3.34
					c3.95-2.27,7.89-4.34,11.57-6.02c2-0.89,4.05-1.82,6.22-2.64c3.84-1.42,8.12-2.7,13.02-3.86c0.98-0.26,1.84-0.49,2.71-0.74
					c0.55-0.15,1.08-0.33,1.64-0.46l23.77-1.62c3.01,0.13,6.24,0.51,9.68,0.96l1.36,0.18c0.81,0.1,1.9,0.18,2.99,0.25l0.96,0.07
					l1.09,0.22h0.31c1.75,0.07,3.5,0.1,5.23,0.1c41.28,0,82.02-17.58,111.8-48.21c29.65-30.5,45.98-71.52,44.81-112.58l-0.03-1.21
					l-0.23-1.27c-0.22-1.15-0.29-2.31-0.37-3.46c-0.1-1.38-0.22-2.75-0.39-4.13l-0.27-2.42c-0.23-2.07-0.46-4.08-0.6-6.15
					l1.83-24.03c0.12-0.6,0.34-1.15,0.5-1.73l0.43-1.48c1.11-4.55,2.29-9.12,4-13.53c0.88-2.51,1.73-4.36,2.65-6.26
					c1.91-4.2,3.9-8.02,6.23-11.93c1.02-1.7,2-3.42,3.17-5.08c4.34-6.33,8.3-11.18,12.4-15.28c20.31-20.32,47.32-31.5,76.1-31.5
					c28.73,0,55.77,11.16,76.1,31.46c41.89,41.94,41.86,110.2-0.1,152.16c-4.24,4.25-9.05,8.15-15.17,12.33
					c-1.79,1.22-3.48,2.23-5.19,3.23c-3.87,2.31-7.76,4.36-11.65,6.15c-2.1,0.95-4.2,1.91-6.23,2.66
					c-4.12,1.53-8.48,2.83-13.07,3.87l-2.58,0.72c-0.59,0.16-1.15,0.35-1.73,0.5l-24.18,1.72c-2.83-0.12-5.8-0.5-8.95-0.9
					l-2.15-0.27c-0.72-0.12-1.85-0.2-2.98-0.27l-0.85-0.08l-1.23-0.24h-0.97c-1.77-0.06-3.5-0.08-5.25-0.08
					c-41.28,0-82.01,17.56-111.77,48.19c-29.66,30.51-45.99,71.57-44.82,112.64l0.03,1.22l0.23,1.21c0.22,1.17,0.27,2.32,0.37,3.48
					c0.1,1.39,0.22,2.75,0.38,4.12c0.05,0.82,0.21,2.3,0.4,3.75c0.18,1.65,0.4,3.25,0.4,4.9v-0.17l-1.72,22.86
					c-0.11,0.48-0.88,3.11-1.09,3.94c-1.16,4.93-2.46,9.3-3.92,13.22c-0.8,2.19-1.6,4.07-2.55,6.04c-1.85,4.05-3.87,7.94-6.16,11.9
					c-1.01,1.62-2.2,3.52-3.4,5.34c-3.97,5.76-7.91,10.6-12.13,14.84c-20.12,20.15-46.93,31.26-75.45,31.26H113.4z"/>
			</g>
			<path class="st0" d="M402.14,792.47c-28.59,0-55.45-11.13-75.66-31.34c-20.19-20.19-31.3-47.02-31.31-75.59
				c-0.02-28.54,11.09-55.37,31.27-75.51c4.12-4.14,8.79-7.95,15.19-12.37c1.58-1.07,3.29-2.12,5.08-3.15
				c3.93-2.35,7.7-4.34,11.63-6.14c2.09-0.95,4.13-1.89,6.2-2.67c3.97-1.46,8.29-2.73,12.88-3.74c0,0,3.76-1.09,4.24-1.21
				l24.17-1.77c2.85,0.13,5.93,0.54,9.15,0.96l1.79,0.24c1.19,0.11,2.18,0.21,3.18,0.23c0.4,0.03,0.79,0.03,1.17,0.07l0.76,0.1
				l1.01,0.1c1.77,0.05,3.56,0.1,5.33,0.1c40.94-0.02,81.37-17.46,110.9-47.87c29.46-30.29,45.7-71.11,44.53-111.92l-0.15-4.98
				l-0.44-0.55c-0.02-0.17-0.02-0.36-0.04-0.55c-0.06-1.16-0.13-2.33-0.25-3.51l-0.4-3.43c-0.22-1.89-0.47-3.74-0.53-5.63
				l1.66-23.14c0.13-0.56,0.96-3.43,1.16-4.29c1.36-5.53,2.55-9.57,3.91-13.17c0.76-2.15,1.69-4.12,2.63-6.19
				c1.71-3.73,3.71-7.52,6.16-11.69l0.47-0.76c0.82-1.41,1.62-2.8,2.59-4.15c4.38-6.38,8.27-11.18,12.37-15.28
				c20.21-20.21,47.09-31.34,75.66-31.34c28.55,0,55.38,11.11,75.57,31.29c41.66,41.67,41.66,109.54,0,151.26
				c-4.04,4.02-8.86,7.92-15.14,12.25c-1.21,0.83-2.37,1.52-3.53,2.22l-1.87,1.16c-3.58,2.12-7.47,4.16-11.26,5.9
				c-2.14,0.96-4.15,1.89-6.28,2.68c-3.74,1.41-7.86,2.6-13.06,3.85c-1.04,0.25-1.89,0.51-2.72,0.76c-0.58,0.15-1.13,0.33-1.69,0.46
				l-23.76,1.64c-3.48-0.15-7.24-0.66-10.88-1.14c-1.24-0.15-2.2-0.2-3.15-0.25c-0.36-0.02-0.72-0.02-1.09-0.07l-2.02-0.21
				c-1.77-0.07-3.53-0.1-5.28-0.1c-40.98,0-81.4,17.46-110.97,47.86c-29.44,30.32-45.66,71.12-44.46,111.96l0.03,1.19l0.23,1.18
				c0.23,1.21,0.28,2.45,0.36,3.66c0.08,1.26,0.18,2.49,0.31,3.69c0.08,1.01,0.23,2.3,0.36,3.56c0.22,1.81,0.43,3.63,0.48,5.43
				l-1.75,23.47c-0.13,0.51-1.05,3.68-1.05,3.68c-1.14,4.97-2.42,9.32-3.92,13.41c-0.71,1.92-1.56,3.78-2.42,5.72l-0.3,0.68
				c-1.77,3.82-3.76,7.6-5.98,11.29c-1.09,1.82-2.17,3.61-3.31,5.3c-4.19,6.08-8.13,10.91-12.36,15.17
				C457.47,781.37,430.67,792.47,402.14,792.47L402.14,792.47z"/>
			<path class="st0" d="M113.14,503.81c-28.57,0-55.42-11.11-75.61-31.29c-20.2-20.22-31.33-47.07-31.35-75.64
				c-0.02-28.54,11.08-55.35,31.27-75.52c4.14-4.14,8.96-8.05,15.16-12.32c1.62-1.09,3.44-2.2,5.26-3.3
				c3.7-2.19,7.47-4.19,11.5-6.04c2.07-0.95,4.12-1.87,6.31-2.68c3.93-1.44,8.27-2.72,12.78-3.73l2.72-0.76
				c0.5-0.15,0.98-0.31,1.48-0.43l24.2-1.74c3.14,0.13,6.54,0.58,10.1,1.06l0.75,0.1c1.35,0.14,2.38,0.19,3.45,0.24
				c0.36,0.02,0.94,0.08,1.3,0.14l0.52,0.09l0.98,0.03c1.79,0.05,3.56,0.08,5.33,0.08c40.93,0,81.35-17.44,110.9-47.86
				c29.45-30.32,45.66-71.13,44.48-111.96l-0.03-1.18l-0.14-0.71c-0.17-0.84-0.29-1.68-0.35-2.54c-0.11-1.71-0.18-3.36-0.36-5.12
				l-0.37-3.3c-0.25-1.96-0.5-3.95-0.54-5.93l1.61-22.46l0.15-0.51v-0.45c0.13-0.52,1.01-3.5,1.01-3.5
				c1.36-5.74,2.57-9.9,3.93-13.56c0.76-2.02,1.71-4.04,2.66-6.13c1.74-3.84,3.78-7.73,6.13-11.69l0.36-0.61
				c0.93-1.54,1.84-3.08,2.88-4.62c4.24-6.14,8.13-10.95,12.2-15c20.21-20.21,47.07-31.34,75.66-31.34
				c28.57,0,55.41,11.11,75.62,31.3c41.67,41.69,41.63,109.54-0.05,151.21c-4.13,4.14-9.04,8.13-15.06,12.21
				c-1.64,1.16-3.05,1.99-4.51,2.85l-0.79,0.46c-3.92,2.34-7.79,4.37-11.43,6.05c-2.16,0.99-4.18,1.9-6.23,2.66
				c-4.01,1.49-8.27,2.75-13.07,3.86c-1.01,0.25-1.92,0.51-2.83,0.76c-0.55,0.15-1.11,0.33-1.68,0.46l-23.7,1.66
				c-3-0.15-6.21-0.55-9.58-0.98l-1.45-0.18c-1.09-0.13-2.1-0.18-3.08-0.25c-0.4-0.02-0.79-0.02-1.19-0.08l-0.8-0.1l-1.04-0.08
				c-1.77-0.07-3.53-0.1-5.3-0.1c-40.94,0-81.37,17.44-110.91,47.83c-29.47,30.32-45.7,71.15-44.53,111.99l0.03,1.19l0.21,1.18
				c0.25,1.19,0.3,2.43,0.39,3.64c0.08,1.26,0.18,2.48,0.31,3.74c0.1,0.99,0.25,2.27,0.4,3.53c0.2,1.79,0.43,3.54,0.46,5.31
				l-1.71,23.3c-0.13,0.59-0.33,1.21-0.51,1.84l-0.6,2.09c-1.19,5.22-2.45,9.56-3.87,13.41c-0.76,2.02-1.74,4.11-2.72,6.25
				c-1.75,3.84-3.74,7.63-6.06,11.51c-1.1,1.85-2.14,3.59-3.24,5.23c-4.39,6.36-8.17,11.03-12.29,15.12
				C168.47,492.72,141.65,503.81,113.14,503.81L113.14,503.81z"/>
		</g>
	</g>
</g>
</svg>
